<?xml version="1.0" encoding="UTF-8" standalone="no"?>
<svg
   xmlns:dc="http://purl.org/dc/elements/1.1/"
   xmlns:cc="http://creativecommons.org/ns#"
   xmlns:rdf="http://www.w3.org/1999/02/22-rdf-syntax-ns#"
   xmlns:svg="http://www.w3.org/2000/svg"
   xmlns="http://www.w3.org/2000/svg"
   xmlns:xlink="http://www.w3.org/1999/xlink"
   xmlns:sodipodi="http://sodipodi.sourceforge.net/DTD/sodipodi-0.dtd"
   xmlns:inkscape="http://www.inkscape.org/namespaces/inkscape"
   width="384pt"
   height="384pt"
   version="1.1"
   viewBox="0 0 384 384"
   id="svg57"
   sodipodi:docname="desktop.svg"
   inkscape:version="0.92.4 5da689c313, 2019-01-14">
  <metadata
     id="metadata61">
    <rdf:RDF>
      <cc:Work
         rdf:about="">
        <dc:format>image/svg+xml</dc:format>
        <dc:type
           rdf:resource="http://purl.org/dc/dcmitype/StillImage" />
      </cc:Work>
    </rdf:RDF>
  </metadata>
  <sodipodi:namedview
     pagecolor="#ffffff"
     bordercolor="#666666"
     borderopacity="1"
     objecttolerance="10"
     gridtolerance="10"
     guidetolerance="10"
     inkscape:pageopacity="0"
     inkscape:pageshadow="2"
     inkscape:window-width="1366"
     inkscape:window-height="690"
     id="namedview59"
     showgrid="false"
     inkscape:zoom="6.2976695"
     inkscape:cx="458.19051"
     inkscape:cy="108.23923"
     inkscape:window-x="0"
     inkscape:window-y="0"
     inkscape:window-maximized="1"
     inkscape:current-layer="g55" />
  <defs
     id="defs43">
    <linearGradient
       id="linear0"
       x1="-127.093"
       x2="920.763"
       y1="1098.019"
       y2="264.361"
       gradientTransform="matrix(0.75,0,0,0.77967878,0,-429.58038)"
       gradientUnits="userSpaceOnUse">
      <stop
         offset="0"
         style="stop-color:#1c6aee;stop-opacity:1"
         id="stop2" />
      <stop
         offset="1"
         style="stop-color:#35e424;stop-opacity:0.99607843"
         id="stop4" />
    </linearGradient>
    <filter
       id="alpha"
       width="100%"
       height="100%"
       x="0%"
       y="0%"
       filterUnits="objectBoundingBox">
      <feColorMatrix
         in="SourceGraphic"
         type="matrix"
         values="0 0 0 0 1 0 0 0 0 1 0 0 0 0 1 0 0 0 1 0"
         id="feColorMatrix7" />
    </filter>
    <mask
       id="mask0">
      <g
         filter="url(#alpha)"
         id="g12">
        <rect
           width="384"
           height="384"
           x="0"
           y="0"
           style="fill:rgb(0%,0%,0%);fill-opacity:0.301961"
           id="rect10" />
      </g>
    </mask>
    <clipPath
       id="clip1">
      <rect
         width="384"
         height="384"
         x="0"
         y="0"
         id="rect15" />
    </clipPath>
    <g
       id="surface5"
       clip-path="url(#clip1)">
      <path
         style="fill:rgb(0%,0%,0%)"
         d="M 244.722656 276.738281 L 220.609375 276.738281 L 220.609375 302.371094 L 244.722656 302.371094 Z M 208.554688 276.738281 L 184.445312 276.738281 L 184.445312 302.371094 L 208.554688 302.371094 Z M 172.390625 276.738281 L 148.277344 276.738281 L 148.277344 302.371094 L 172.390625 302.371094 Z M 172.390625 276.738281"
         id="path18" />
    </g>
    <mask
       id="mask1">
      <g
         filter="url(#alpha)"
         id="g23">
        <rect
           width="384"
           height="384"
           x="0"
           y="0"
           style="fill:rgb(0%,0%,0%);fill-opacity:0.301961"
           id="rect21" />
      </g>
    </mask>
    <clipPath
       id="clip2">
      <rect
         width="384"
         height="384"
         x="0"
         y="0"
         id="rect26" />
    </clipPath>
    <g
       id="surface8"
       clip-path="url(#clip2)">
      <path
         style="fill:rgb(0%,0%,0%)"
         d="M 15.75 283.347656 L 15.75 313.824219 C 15.75 319.421875 21.046875 328.195312 30.988281 328.195312 L 353.011719 328.195312 C 361.691406 328.195312 368.25 321.660156 368.25 312.550781 L 368.25 283.347656 C 368.25 298.96875 361.453125 311.542969 353.011719 311.542969 L 30.988281 311.542969 C 22.546875 311.542969 15.75 298.96875 15.75 283.347656 Z M 15.75 283.347656"
         id="path29" />
    </g>
    <mask
       id="mask2">
      <g
         filter="url(#alpha)"
         id="g34">
        <rect
           width="384"
           height="384"
           x="0"
           y="0"
           style="fill:rgb(0%,0%,0%);fill-opacity:0.301961"
           id="rect32" />
      </g>
    </mask>
    <clipPath
       id="clip3">
      <rect
         width="384"
         height="384"
         x="0"
         y="0"
         id="rect37" />
    </clipPath>
    <g
       id="surface11"
       clip-path="url(#clip3)">
      <path
         style="fill:rgb(100.000%,100.000%,100.000%)"
         d="M 30.988281 55.804688 C 22.265625 55.804688 15.75 62.148438 15.75 72.183594 L 15.75 82.742188 C 15.75 72.035156 22.546875 63.414062 30.988281 63.414062 L 353.011719 63.414062 C 361.453125 63.414062 368.25 72.035156 368.25 82.742188 L 368.25 71.554688 C 368.25 60.851562 361.453125 55.804688 353.011719 55.804688 Z M 30.988281 55.804688"
         id="path40" />
    </g>
    <linearGradient
       id="linear0-6"
       x1="-127.093"
       x2="920.763"
       y1="1098.019"
       y2="264.36099"
       gradientTransform="matrix(0.75,0,0,0.75,6.5603609e-7,-405.27163)"
       gradientUnits="userSpaceOnUse">
      <stop
         offset="0"
         style="stop-color:rgb(21.176%,48.235%,94.117%)"
         id="stop2-7" />
      <stop
         offset="1"
         style="stop-color:rgb(72.156%,9.019%,29.803%);stop-opacity:0.996078"
         id="stop4-5" />
    </linearGradient>
    <linearGradient
       id="linear0-0"
       x1="-127.093"
       x2="920.763"
       y1="1098.019"
       y2="264.36099"
       gradientTransform="matrix(0.74999998,0,0,0.16520631,344.25266,-53.665103)"
       gradientUnits="userSpaceOnUse">
      <stop
         offset="0"
         style="stop-color:#1c6aee;stop-opacity:1"
         id="stop2-2" />
      <stop
         offset="1"
         style="stop-color:#35e424;stop-opacity:0.99607843"
         id="stop4-6" />
    </linearGradient>
  </defs>
  <g
     id="g55">
    <path
       style="fill:url(#linear0);stroke-width:1.01959395"
       d="M 30.992188,49.74153 H 353.00781 c 8.41797,0 15.24219,7.094264 15.24219,15.845346 V 317.06575 c 0,8.74702 -6.82422,15.84129 -15.24219,15.84129 H 30.992188 C 22.574219,332.90704 15.75,325.81277 15.75,317.06575 V 65.586876 c 0,-8.751082 6.824219,-15.845346 15.242188,-15.845346 z m 0,0"
       id="path45"
       inkscape:connector-curvature="0" />
    <rect
       style="opacity:1;fill:#1e1e1e;fill-opacity:1;stroke:none;stroke-width:5.10434389;stroke-linejoin:round;stroke-miterlimit:4;stroke-dasharray:none;stroke-opacity:1;paint-order:normal"
       id="rect870"
       width="352.5"
       height="60"
       x="15.75"
       y="276"
       rx="15.432407"
       ry="15.432407" />
    <path
       style="fill:#ffffff;stroke-width:1.13155806"
       d="m 58.429882,294.01817 h -21 v 21 h 21 z"
       id="path49"
       inkscape:connector-curvature="0"
       sodipodi:nodetypes="ccccc" />
    <use
       mask="url(#mask1)"
       xlink:href="#surface8"
       id="use51"
       transform="matrix(1,0,0,1.0395717,0,-5.2714417)"
       x="0"
       y="0"
       width="100%"
       height="100%" />
    <use
       mask="url(#mask2)"
       xlink:href="#surface11"
       id="use53"
       transform="matrix(1,0,0,1.0395717,0,-8.2714417)"
       x="0"
       y="0"
       width="100%"
       height="100%" />
  </g>
</svg>
