<?xml version="1.0" encoding="UTF-8" standalone="no"?>
<svg
   xmlns:dc="http://purl.org/dc/elements/1.1/"
   xmlns:cc="http://creativecommons.org/ns#"
   xmlns:rdf="http://www.w3.org/1999/02/22-rdf-syntax-ns#"
   xmlns:svg="http://www.w3.org/2000/svg"
   xmlns="http://www.w3.org/2000/svg"
   xmlns:xlink="http://www.w3.org/1999/xlink"
   xmlns:sodipodi="http://sodipodi.sourceforge.net/DTD/sodipodi-0.dtd"
   xmlns:inkscape="http://www.inkscape.org/namespaces/inkscape"
   width="512"
   height="512"
   version="1.1"
   viewBox="0 0 384 384"
   id="svg52"
   sodipodi:docname="accessories-calculator.svg"
   inkscape:version="0.92.4 5da689c313, 2019-01-14">
  <metadata
     id="metadata56">
    <rdf:RDF>
      <cc:Work
         rdf:about="">
        <dc:format>image/svg+xml</dc:format>
        <dc:type
           rdf:resource="http://purl.org/dc/dcmitype/StillImage" />
        <dc:title></dc:title>
      </cc:Work>
    </rdf:RDF>
  </metadata>
  <sodipodi:namedview
     pagecolor="#ffffff"
     bordercolor="#666666"
     borderopacity="1"
     objecttolerance="10"
     gridtolerance="10"
     guidetolerance="10"
     inkscape:pageopacity="0"
     inkscape:pageshadow="2"
     inkscape:window-width="1366"
     inkscape:window-height="690"
     id="namedview54"
     showgrid="false"
     inkscape:zoom="0.78720872"
     inkscape:cx="204.18478"
     inkscape:cy="282.54899"
     inkscape:window-x="0"
     inkscape:window-y="0"
     inkscape:window-maximized="1"
     inkscape:current-layer="g50" />
  <defs
     id="defs14">
    <linearGradient
       inkscape:collect="always"
       id="linearGradient912">
      <stop
         style="stop-color:#003399;stop-opacity:1"
         offset="0"
         id="stop908" />
      <stop
         style="stop-color:#0099ff;stop-opacity:1"
         offset="1"
         id="stop910" />
    </linearGradient>
    <clipPath
       id="clipPath4">
      <rect
         width="384"
         height="384"
         id="rect2" />
    </clipPath>
    <clipPath
       id="clipPath8">
      <rect
         width="384"
         height="384"
         id="rect6" />
    </clipPath>
    <clipPath
       id="clipPath12">
      <rect
         width="384"
         height="384"
         id="rect10" />
    </clipPath>
    <linearGradient
       inkscape:collect="always"
       xlink:href="#linearGradient912"
       id="linearGradient914"
       x1="23.2464"
       y1="192.0046"
       x2="360.75365"
       y2="192.0046"
       gradientUnits="userSpaceOnUse" />
  </defs>
  <g
     transform="translate(-.01 -.02)"
     id="g50">
    <g
       id="g24"
       transform="matrix(1.0444109,0,0,1.044416,-8.5187988,-8.5126758)">
      <path
         d="M 192.02,23.25 V 192 h -0.0156 V 23.27 h -141.43 c -14.059,0.07813 -25.547,10.5 -27.328,24.074 v 144.68 h 0.03125 v 140.95 c 0,15.375 12.379,27.754 27.754,27.754 h 140.96 v 0.0312 h 141.18 c 15.156,-0.082 27.34,-12.184 27.582,-27.297 v -141.46 h -0.0859 v -141.04 c -4e-5,-15.059 -11.875,-27.211 -26.805,-27.711 z"
         id="path16"
         inkscape:connector-curvature="0"
         style="fill:url(#linearGradient914);fill-opacity:1" />
      <path
         d="m 23.281,192.01 v 140.95 c 0,15.375 12.379,27.754 27.754,27.754 h 140.97 v -168.71 z"
         id="path20"
         inkscape:connector-curvature="0"
         style="fill:#000000;fill-opacity:0.39215687" />
      <path
         d="m 23.25,184.52 v 7.5 h 0.03125 v -7.5 z m 0.03125,140.95 v 7.5 c 0,15.375 12.379,27.754 27.754,27.754 h 140.96 v 0.0312 h 141.18 c 15.156,-0.082 27.34,-12.184 27.582,-27.297 v -7.5 c -0.24219,15.113 -12.426,27.215 -27.582,27.297 h -141.18 v -0.0312 h -140.96 c -15.375,0 -27.754,-12.379 -27.754,-27.754 z"
         id="path22"
         inkscape:connector-curvature="0"
         style="opacity:0.3" />
    </g>
    <path
       d="m 44.305414,15.786706 c -14.683372,0.0816 -26.681564,10.966367 -28.54166,25.14327 V 192.03608 H 192.01853 V 15.790883 Z"
       id="path30"
       inkscape:connector-curvature="0"
       style="fill:#000000;stroke-width:1.04441345;fill-opacity:0.19607843" />
    <path
       d="m 110.87825,75.553628 v 30.761182 h 30.64719 v 13.85523 H 110.87825 V 150.9354 H 96.909254 v -30.76536 h -30.64719 v -13.85523 h 30.64719 V 75.553628 Z"
       id="path32"
       inkscape:connector-curvature="0"
       style="opacity:0.3;stroke-width:1.04441345" />
    <path
       d="m 110.72212,65.10228 v 30.605393 h 30.53994 v 13.785057 h -30.53994 v 30.60955 H 96.802007 V 109.49273 H 66.262064 V 95.707673 H 96.802007 V 65.10228 Z"
       id="path34"
       inkscape:connector-curvature="0"
       style="fill:#ffffff;stroke-width:1.03994095" />
    <path
       d="m 139.24445,262.54461 -25.48154,25.47852 25.48154,25.35947 -9.86478,9.86482 -25.4784,-25.36364 -25.478399,25.36364 -9.864774,-9.86482 25.478407,-25.35947 -25.478407,-25.47852 9.864774,-9.86483 25.478399,25.47853 25.4784,-25.47853 z"
       id="path40"
       inkscape:connector-curvature="0"
       style="opacity:0.3;stroke-width:1.04441345" />
    <path
       d="m 139.24445,254.71149 -25.48154,25.47852 25.48154,25.35947 -9.86478,9.86482 -25.4784,-25.36364 -25.478399,25.36364 -9.864774,-9.86482 25.478407,-25.35947 -25.478407,-25.47852 9.864774,-9.86483 25.478399,25.47853 25.4784,-25.47853 z"
       id="path42"
       inkscape:connector-curvature="0"
       style="fill:#ffffff;stroke-width:1.04441345" />
    <path
       d="m 192.03158,15.769995 v 7.83312 h 148.13924 c 15.59253,0.52221 27.99387,13.21369 27.99387,28.941028 v -7.83312 c -5e-5,-15.727338 -12.40134,-28.419342 -27.99387,-28.941028 z M 44.307503,15.786821 C 29.624392,15.868421 17.626461,26.752405 15.76532,40.929569 v 7.833119 C 17.625677,34.585525 29.624392,23.701405 44.307503,23.61994 H 192.01592 V 15.786821 Z M 192.01592,192.00852 v 7.83312 h 0.0168 v -7.83312 z m 176.15033,0 v 7.83312 h 0.0903 v -7.83312 z"
       id="path48"
       inkscape:connector-curvature="0"
       style="opacity:0.3;fill:#ffffff;stroke-width:1.04438734" />
    <path
       d="m 247.84616,172.54915 h 73.5004 v 15.14402 h -73.5004 z"
       id="path36-7"
       inkscape:connector-curvature="0"
       style="opacity:0.3;stroke-width:1.04441333" />
    <path
       d="m 247.84616,160.36006 h 73.5004 v 14.99999 h -73.5004 z"
       id="path38-4"
       inkscape:connector-curvature="0"
       style="fill:#ffffff;stroke-width:1.03943467" />
    <path
       d="m 247.99975,201.03591 h 73.5004 v 15.14403 h -73.5004 z"
       id="path36-0-5"
       inkscape:connector-curvature="0"
       style="opacity:0.3;stroke-width:1.04441333" />
    <path
       d="m 247.99975,191.84682 h 73.5004 v 15 h -73.5004 z"
       id="path38-5-5"
       inkscape:connector-curvature="0"
       style="fill:#ffffff;stroke-width:1.03943467" />
  </g>
</svg>
