<?xml version="1.0" encoding="UTF-8" standalone="no"?>
<svg
   xmlns:dc="http://purl.org/dc/elements/1.1/"
   xmlns:cc="http://creativecommons.org/ns#"
   xmlns:rdf="http://www.w3.org/1999/02/22-rdf-syntax-ns#"
   xmlns:svg="http://www.w3.org/2000/svg"
   xmlns="http://www.w3.org/2000/svg"
   xmlns:xlink="http://www.w3.org/1999/xlink"
   xmlns:sodipodi="http://sodipodi.sourceforge.net/DTD/sodipodi-0.dtd"
   xmlns:inkscape="http://www.inkscape.org/namespaces/inkscape"
   width="512"
   height="512"
   version="1.1"
   viewBox="0 0 384 384"
   id="svg45"
   sodipodi:docname="accessories-camera.svg"
   inkscape:version="0.92.4 5da689c313, 2019-01-14">
  <metadata
     id="metadata49">
    <rdf:RDF>
      <cc:Work
         rdf:about="">
        <dc:format>image/svg+xml</dc:format>
        <dc:type
           rdf:resource="http://purl.org/dc/dcmitype/StillImage" />
      </cc:Work>
    </rdf:RDF>
  </metadata>
  <sodipodi:namedview
     pagecolor="#ffffff"
     bordercolor="#666666"
     borderopacity="1"
     objecttolerance="10"
     gridtolerance="10"
     guidetolerance="10"
     inkscape:pageopacity="0"
     inkscape:pageshadow="2"
     inkscape:window-width="1366"
     inkscape:window-height="710"
     id="namedview47"
     showgrid="false"
     inkscape:zoom="0.921875"
     inkscape:cx="238.04515"
     inkscape:cy="97.420313"
     inkscape:window-x="0"
     inkscape:window-y="25"
     inkscape:window-maximized="1"
     inkscape:current-layer="svg45" />
  <defs
     id="defs21">
    <linearGradient
       inkscape:collect="always"
       id="linearGradient869">
      <stop
         style="stop-color:#c8c8c8;stop-opacity:1;"
         offset="0"
         id="stop865" />
      <stop
         style="stop-color:#bebebe;stop-opacity:1"
         offset="1"
         id="stop867" />
    </linearGradient>
    <linearGradient
       id="d"
       x1="-44"
       x2="-24"
       y1="-24"
       y2="-24"
       gradientTransform="matrix(2.3855 -2.4201 -2.4201 -2.3855 191.02 67.38)"
       gradientUnits="userSpaceOnUse">
      <stop
         stop-opacity="0"
         offset="0"
         id="stop2" />
      <stop
         offset="1"
         id="stop4" />
    </linearGradient>
    <g
       id="b"
       opacity=".3"
       lip-path="url(#clip3)">
      <path
         d="m152.85 144.27c-11.742 10.883-18.426 26.164-18.445 42.172 0 31.805 25.785 57.59 57.59 57.59 16.297-0.0234 31.82-6.9531 42.723-19.066z"
         fill="url(#d)"
         id="path7" />
    </g>
    <linearGradient
       id="c"
       x1="-44"
       x2="-24"
       y1="-24"
       y2="-24"
       gradientTransform="matrix(-2.4201 -2.3855 2.3855 -2.4201 191.02 67.38)"
       gradientUnits="userSpaceOnUse">
      <stop
         stop-opacity="0"
         offset="0"
         id="stop10" />
      <stop
         offset="1"
         id="stop12" />
    </linearGradient>
    <clipPath
       id="e">
      <rect
         width="384"
         height="384"
         id="rect15" />
    </clipPath>
    <g
       id="a"
       clip-path="url(#e)"
       opacity=".3">
      <path
         d="m230.4 143.61-80.684 81.852c10.887 11.816 26.215 18.551 42.281 18.57 31.805 0 57.586-25.785 57.59-57.59-0.0234-16.355-7-31.926-19.188-42.832z"
         fill="url(#c)"
         id="path18" />
    </g>
    <linearGradient
       inkscape:collect="always"
       xlink:href="#linearGradient869"
       id="linearGradient871"
       x1="192.47006"
       y1="31.246923"
       x2="189.89937"
       y2="363.99268"
       gradientUnits="userSpaceOnUse"
       gradientTransform="matrix(1.0444534,0,0,1.0425057,-8.5332522,-15.978098)" />
  </defs>
  <path
     style="opacity:0.3;stroke-width:1.08866167"
     inkscape:connector-curvature="0"
     id="path23"
     d="M 368.25,196.07324 C 368.25,293.23049 289.34205,372 192.00545,372 94.662316,372 15.750001,293.23485 15.750001,196.07324 c 0,-97.157257 78.907955,-175.915894 176.255449,-175.915894 97.33878,0 176.24455,78.760806 176.24455,175.915894 z" />
  <path
     inkscape:connector-curvature="0"
     style="fill:url(#linearGradient871);fill-opacity:1;stroke:none;stroke-width:1.08866167;stroke-opacity:1"
     id="path27"
     d="m 368.25,187.91589 c 0,97.15726 -78.90795,175.92676 -176.24455,175.92676 -97.343134,0 -176.255449,-78.76515 -176.255449,-175.92676 C 15.750001,90.758637 94.657956,12 192.00545,12 289.34423,12 368.25,90.760805 368.25,187.91589 Z" />
  <path
     style="fill:#3d0097;fill-opacity:1;stroke-width:1.08866167"
     inkscape:connector-curvature="0"
     id="path29"
     d="m 334.3937,187.91589 c 0,78.4976 -63.75053,142.1336 -142.38825,142.1336 -78.64425,0 -142.399147,-63.63165 -142.399147,-142.1336 0,-78.49324 63.750537,-142.122724 142.399147,-142.122724 78.6399,0 142.38825,63.631654 142.38825,142.122724 z" />
  <path
     inkscape:connector-curvature="0"
     id="path33"
     d="m 290.21815,187.91589 c 0,54.14412 -43.97396,98.03716 -98.21596,98.03716 -54.24528,0 -98.220334,-43.89196 -98.220334,-98.03716 0,-54.13976 43.973974,-98.032812 98.220334,-98.032812 54.2409,0 98.21596,43.891962 98.21596,98.032812 z"
     style="fill:#ffffff;fill-opacity:0.19607843;stroke-width:1.08866167" />
  <path
     style="fill:#000000;fill-opacity:1;stroke-width:1.02140868"
     inkscape:connector-curvature="0"
     id="path35"
     d="M 267,187.49796 C 267,228.92119 233.42118,262.5 192.00204,262.5 150.57881,262.5 117,228.92119 117,187.49796 117,146.07881 150.57881,112.5 192.00204,112.5 233.42118,112.5 267,146.07881 267,187.49796 Z" />
  <path
     style="opacity:0.3;fill:#ffffff;stroke-width:0.81649631"
     inkscape:connector-curvature="0"
     id="path41"
     d="m 278.51228,117.88507 a 21.877197,21.8364 0 0 0 -21.87801,21.83722 21.877197,21.8364 0 0 0 21.87801,21.83559 21.877197,21.8364 0 0 0 21.87801,-21.83559 21.877197,21.8364 0 0 0 -21.87801,-21.83722 z m -41.7423,37.14612 a 11.567479,11.545908 0 0 0 -11.56748,11.5459 11.567479,11.545908 0 0 0 11.56748,11.54591 11.567479,11.545908 0 0 0 11.56748,-11.54591 11.567479,11.545908 0 0 0 -11.56748,-11.5459 z" />
  <ellipse
     style="fill:#141414;fill-opacity:1;stroke:none;stroke-width:3.35566473;stroke-miterlimit:4;stroke-dasharray:none;stroke-opacity:1"
     id="path856"
     cx="192.0018"
     cy="185.68298"
     rx="31.333601"
     ry="31.275169" />
</svg>
