<?xml version="1.0" encoding="UTF-8" standalone="no"?>
<svg
   xmlns:dc="http://purl.org/dc/elements/1.1/"
   xmlns:cc="http://creativecommons.org/ns#"
   xmlns:rdf="http://www.w3.org/1999/02/22-rdf-syntax-ns#"
   xmlns:svg="http://www.w3.org/2000/svg"
   xmlns="http://www.w3.org/2000/svg"
   xmlns:xlink="http://www.w3.org/1999/xlink"
   xmlns:sodipodi="http://sodipodi.sourceforge.net/DTD/sodipodi-0.dtd"
   xmlns:inkscape="http://www.inkscape.org/namespaces/inkscape"
   width="512"
   height="512"
   version="1.1"
   viewBox="0 0 384 384"
   id="svg22"
   sodipodi:docname="drive-removable-media-usb.svg"
   inkscape:version="0.92.4 5da689c313, 2019-01-14">
  <metadata
     id="metadata28">
    <rdf:RDF>
      <cc:Work
         rdf:about="">
        <dc:format>image/svg+xml</dc:format>
        <dc:type
           rdf:resource="http://purl.org/dc/dcmitype/StillImage" />
        <dc:title></dc:title>
      </cc:Work>
    </rdf:RDF>
  </metadata>
  <defs
     id="defs26">
    <linearGradient
       inkscape:collect="always"
       id="linearGradient957">
      <stop
         style="stop-color:#d2d2d2;stop-opacity:1;"
         offset="0"
         id="stop953" />
      <stop
         style="stop-color:#dcdcdc;stop-opacity:1"
         offset="1"
         id="stop955" />
    </linearGradient>
    <linearGradient
       inkscape:collect="always"
       id="linearGradient924">
      <stop
         style="stop-color:#ffffff;stop-opacity:1;"
         offset="0"
         id="stop920" />
      <stop
         style="stop-color:#ffffff;stop-opacity:0;"
         offset="1"
         id="stop922" />
    </linearGradient>
    <linearGradient
       inkscape:collect="always"
       id="linearGradient892">
      <stop
         style="stop-color:#000000;stop-opacity:1;"
         offset="0"
         id="stop888" />
      <stop
         style="stop-color:#000000;stop-opacity:0;"
         offset="1"
         id="stop890" />
    </linearGradient>
    <linearGradient
       inkscape:collect="always"
       xlink:href="#linearGradient892"
       id="linearGradient894"
       x1="195.51483"
       y1="364.47458"
       x2="194.18008"
       y2="336.81357"
       gradientUnits="userSpaceOnUse" />
    <linearGradient
       inkscape:collect="always"
       xlink:href="#linearGradient924"
       id="linearGradient926"
       x1="180.87076"
       y1="18.711864"
       x2="180.34958"
       y2="46.372883"
       gradientUnits="userSpaceOnUse" />
    <linearGradient
       inkscape:collect="always"
       xlink:href="#linearGradient957"
       id="linearGradient959"
       x1="197.80704"
       y1="369.35593"
       x2="187.82008"
       y2="14.644068"
       gradientUnits="userSpaceOnUse" />
    <linearGradient
       gradientTransform="matrix(1,0,0,0.88695652,2.7012207e-6,-350.29564)"
       inkscape:collect="always"
       xlink:href="#linearGradient924"
       id="linearGradient926-5"
       x1="180.87076"
       y1="18.711864"
       x2="180.34958"
       y2="35.170052"
       gradientUnits="userSpaceOnUse" />
  </defs>
  <sodipodi:namedview
     pagecolor="#ffffff"
     bordercolor="#666666"
     borderopacity="1"
     objecttolerance="10"
     gridtolerance="10"
     guidetolerance="10"
     inkscape:pageopacity="0"
     inkscape:pageshadow="2"
     inkscape:window-width="1366"
     inkscape:window-height="710"
     id="namedview24"
     showgrid="false"
     inkscape:zoom="0.55590307"
     inkscape:cx="138.11651"
     inkscape:cy="102.57653"
     inkscape:window-x="0"
     inkscape:window-y="25"
     inkscape:window-maximized="1"
     inkscape:current-layer="svg22"
     showguides="true"
     inkscape:guide-bbox="true" />
  <rect
     style="opacity:0.4;fill:none;fill-opacity:1;stroke:url(#linearGradient894);stroke-width:7.49999952;stroke-linecap:round;stroke-linejoin:round;stroke-miterlimit:4;stroke-dasharray:none;stroke-opacity:1;paint-order:stroke fill markers"
     id="rect837-3"
     width="280.67017"
     height="345"
     x="51.664917"
     y="27"
     rx="21.279659"
     ry="21.279661" />
  <rect
     style="opacity:1;fill:url(#linearGradient959);fill-opacity:1;stroke:none;stroke-width:7.49999809;stroke-linecap:round;stroke-linejoin:round;stroke-miterlimit:4;stroke-dasharray:none;stroke-opacity:1;paint-order:stroke fill markers"
     id="rect837"
     width="287.77576"
     height="352.5"
     x="48.112129"
     y="15.75"
     rx="21.279659"
     ry="21.279661" />
  <rect
     style="opacity:0.4;fill:none;fill-opacity:1;stroke:url(#linearGradient926);stroke-width:7.49999952;stroke-linecap:round;stroke-linejoin:round;stroke-miterlimit:4;stroke-dasharray:none;stroke-opacity:1;paint-order:stroke fill markers"
     id="rect837-3-3"
     width="280.67017"
     height="345"
     x="51.664917"
     y="19.5"
     rx="21.279659"
     ry="21.279661" />
  <rect
     style="opacity:1;fill:#000000;fill-opacity:0.58823532;stroke:none;stroke-width:2.25820446;stroke-linecap:round;stroke-linejoin:round;stroke-miterlimit:4;stroke-dasharray:none;stroke-opacity:1;paint-order:stroke fill markers"
     id="rect837-1"
     width="287.77576"
     height="31.9568"
     x="48.112122"
     y="336.29321"
     rx="13.725779"
     ry="13.725779" />
  <rect
     style="opacity:0.4;fill:none;fill-opacity:1;stroke:url(#linearGradient926-5);stroke-width:7.0633769;stroke-linecap:round;stroke-linejoin:round;stroke-miterlimit:4;stroke-dasharray:none;stroke-opacity:1;paint-order:stroke fill markers"
     id="rect837-3-3-4"
     width="280.67017"
     height="306"
     x="51.664917"
     y="-333"
     rx="0"
     ry="0"
     transform="scale(1,-1)" />
  <circle
     style="fill:#000000;fill-opacity:0.39215686;stroke:none;stroke-width:5.88742876;stroke-miterlimit:4;stroke-dasharray:none;stroke-opacity:1"
     id="path1084"
     cx="78.583656"
     cy="48.215786"
     r="7.5" />
  <circle
     style="fill:#000000;fill-opacity:0.39215686;stroke:none;stroke-width:5.88742876;stroke-miterlimit:4;stroke-dasharray:none;stroke-opacity:1"
     id="path1084-0"
     cx="306"
     cy="48.216"
     r="7.5" />
  <circle
     style="fill:#000000;fill-opacity:0.39215686;stroke:none;stroke-width:5.88742876;stroke-miterlimit:4;stroke-dasharray:none;stroke-opacity:1"
     id="path1084-8"
     cx="78.583504"
     cy="303.74136"
     r="7.5" />
  <circle
     style="fill:#000000;fill-opacity:0.39215686;stroke:none;stroke-width:5.88742876;stroke-miterlimit:4;stroke-dasharray:none;stroke-opacity:1"
     id="path1084-8-5"
     cx="306"
     cy="303.741"
     r="7.5" />
  <path
     inkscape:connector-curvature="0"
     d="m 196.26448,81.648453 c -0.7304,0.03084 -1.09345,0.270727 -1.3246,0.418871 -0.46232,0.296311 -0.53684,0.448032 -0.63382,0.564014 -0.19399,0.231954 -0.25191,0.339686 -0.33069,0.466642 -0.15758,0.253888 -0.30156,0.51481 -0.47766,0.845088 -0.35221,0.660557 -0.80911,1.563582 -1.34846,2.656562 -1.07871,2.18583 -2.47756,5.10739 -3.86901,8.03942 -2.78291,5.86406 -5.52982,11.76523 -5.52982,11.76523 l 2.39012,3.74785 h 6.10859 v 101.56235 c -2.54068,-2.95673 -5.30602,-5.60918 -7.91814,-8.02834 -3.70182,-3.42841 -7.18986,-6.48006 -9.52386,-9.11227 -2.33399,-2.63236 -3.21689,-4.60319 -3.21689,-5.76686 0,-5.39009 0.1651,-8.8932 0.27557,-13.73871 5.43006,-2.03323 9.32728,-7.27166 9.32728,-13.38699 0,-7.86729 -6.43765,-14.30483 -14.30964,-14.30001 h -0.001 c -7.87199,-0.005 -14.30965,6.4332 -14.30965,14.30001 0,6.28143 4.10909,11.64153 9.77007,13.5496 -0.10985,4.61125 -0.26639,8.11758 -0.26639,13.5761 0,4.85733 2.62512,8.71226 5.61063,12.07888 2.98552,3.36711 6.62725,6.49088 10.17971,9.78102 7.10496,6.58027 13.4388,13.5195 14.21811,21.85714 l 0.16538,-0.0147 v 5.50415 c -7.25746,2.14946 -12.55467,8.85368 -12.55467,16.8042 0,9.68552 7.85814,17.53414 17.54858,17.53414 9.69044,0 17.54257,-7.84838 17.54257,-17.53414 0,-8.11988 -5.52754,-14.92877 -13.02202,-16.92344 v -30.32248 h 0.0643 c 0,-9.25188 3.92262,-14.26025 9.86378,-19.85403 5.94114,-5.59438 13.97839,-11.07613 19.636,-20.05037 l 0.11022,-0.18188 c 1.00621,-1.76824 0.8995,-2.5372 1.04718,-3.67981 0.14766,-1.14261 0.23649,-2.41746 0.30128,-3.836 0.12956,-2.83724 0.14834,-6.22723 0.11937,-9.5753 -0.005,-0.53077 -0.0171,-1.02709 -0.0238,-1.55238 h 6.90959 l 2.63451,-2.63633 v -24.11802 l -2.63451,-2.63451 h -24.18307 l -2.63631,2.63451 v 24.11802 l 2.63631,2.63633 h 7.75648 c 0.007,0.55127 0.019,1.07756 0.0238,1.6332 0.0281,3.25532 0.008,6.5392 -0.1066,9.06278 -0.0576,1.26173 -0.14185,2.34025 -0.23331,3.0479 -0.0282,0.21877 -0.0791,0.32904 -0.12861,0.47767 -4.38191,6.66398 -11.24017,11.59622 -17.75094,17.72686 -1.1608,1.09305 -2.30472,2.25039 -3.40613,3.47406 v -74.11145 h 6.50174 l 2.39011,-3.74412 c 0,0 -2.65451,-5.72096 -5.3425,-11.4877 -1.344,-2.88337 -2.69583,-5.77855 -3.73123,-7.97884 -0.5177,-1.1001 -0.95572,-2.025027 -1.27678,-2.695099 -0.16055,-0.335036 -0.2895,-0.604438 -0.39134,-0.810194 -0.051,-0.102866 -0.0943,-0.188748 -0.13777,-0.271895 -0.0434,-0.08311 0.12052,0.06962 -0.29764,-0.477663 -0.43456,-0.568905 -1.48336,-1.068839 -2.21378,-1.038004 z"
     dominant-baseline="auto"
     style="color:#000000;font-variant-ligatures:normal;font-variant-position:normal;font-variant-caps:normal;font-variant-numeric:normal;font-variant-alternates:normal;font-feature-settings:normal;text-indent:0;text-decoration:none;text-decoration-line:none;text-decoration-style:solid;text-decoration-color:#000000;text-transform:none;text-orientation:mixed;dominant-baseline:auto;white-space:normal;shape-padding:0;isolation:auto;mix-blend-mode:normal;solid-color:#000000;fill:#646464;fill-opacity:1;stroke-width:1.2045157;color-rendering:auto;image-rendering:auto;shape-rendering:auto"
     id="path50" />
</svg>
