<?xml version="1.0" encoding="UTF-8" standalone="no"?>
<svg
   xmlns:dc="http://purl.org/dc/elements/1.1/"
   xmlns:cc="http://creativecommons.org/ns#"
   xmlns:rdf="http://www.w3.org/1999/02/22-rdf-syntax-ns#"
   xmlns:svg="http://www.w3.org/2000/svg"
   xmlns="http://www.w3.org/2000/svg"
   xmlns:xlink="http://www.w3.org/1999/xlink"
   xmlns:sodipodi="http://sodipodi.sourceforge.net/DTD/sodipodi-0.dtd"
   xmlns:inkscape="http://www.inkscape.org/namespaces/inkscape"
   width="512"
   height="512"
   version="1.1"
   viewBox="0 0 384 384"
   id="svg49"
   sodipodi:docname="gnome-logo-icon.svg"
   inkscape:version="0.92.4 5da689c313, 2019-01-14">
  <metadata
     id="metadata53">
    <rdf:RDF>
      <cc:Work
         rdf:about="">
        <dc:format>image/svg+xml</dc:format>
        <dc:type
           rdf:resource="http://purl.org/dc/dcmitype/StillImage" />
      </cc:Work>
    </rdf:RDF>
  </metadata>
  <sodipodi:namedview
     pagecolor="#ffffff"
     bordercolor="#666666"
     borderopacity="1"
     objecttolerance="10"
     gridtolerance="10"
     guidetolerance="10"
     inkscape:pageopacity="0"
     inkscape:pageshadow="2"
     inkscape:window-width="1366"
     inkscape:window-height="690"
     id="namedview51"
     showgrid="false"
     inkscape:zoom="0.4609375"
     inkscape:cx="27.118644"
     inkscape:cy="256"
     inkscape:window-x="0"
     inkscape:window-y="0"
     inkscape:window-maximized="1"
     inkscape:current-layer="g47" />
  <defs
     id="defs9">
    <linearGradient
       id="linearGradient4150-5"
       x1="-44"
       x2="-24"
       y1="-24"
       y2="-24"
       gradientTransform="matrix(.94245151 -.95611607 -.95611595 -.94245157 260.16632 113.49946)"
       gradientUnits="userSpaceOnUse"
       xlink:href="#linearGradient4144" />
    <linearGradient
       id="linearGradient4144">
      <stop
         stop-opacity="0"
         offset="0"
         id="stop3" />
      <stop
         offset="1"
         id="stop5" />
    </linearGradient>
    <linearGradient
       id="linearGradient4156-7"
       x1="-44"
       x2="-24"
       y1="-24"
       y2="-24"
       gradientTransform="matrix(-.95611595 -.94245157 .94245151 -.95611607 260.16632 113.49946)"
       gradientUnits="userSpaceOnUse"
       xlink:href="#linearGradient4144" />
  </defs>
  <ellipse
     cx="192"
     cy="199.5"
     rx="168.63153"
     ry="168.93921"
     style="fill-opacity:.99607843;fill:#060002;opacity:.3"
     id="ellipse11" />
  <g
     transform="matrix(2.481335,0,0,2.481335,-1126.1839,288.09236)"
     id="g47">
    <ellipse
       cx="531.24"
       cy="-38.726"
       rx="67.96"
       ry="68.084"
       style="fill-opacity:0.99607843;fill:#0066cc"
       id="ellipse13" />
    <g
       transform="matrix(.77713255 0 0 .77713255 493.85589 -79.877974)"
       style="opacity:.3"
       id="g25">
      <path
         d="m86.068 0c-24.602 0-29.217 35.041-15.377 35.041 13.838 0 39.98-35.041 15.377-35.041z"
         id="path15" />
      <path
         d="m45.217 30.699c7.369 0.45 15.454-28.122 1.604-26.325-13.845 1.797-8.976 25.875-1.604 26.325z"
         id="path17" />
      <path
         d="m11.445 48.453c5.241-2.307 0.675-24.872-8.237-18.718-8.908 6.155 2.996 21.024 8.237 18.718z"
         id="path19" />
      <path
         d="m26.212 36.642c6.239-1.272 6.581-26.864-4.545-22.273-11.128 4.592-1.689 23.547 4.545 22.273z"
         id="path21" />
      <path
         d="m58.791 93.913c1.107 8.454-6.202 12.629-13.36 7.179-22.787-17.349 37.729-26.004 33.74-49.706-3.311-19.674-63.676-13.617-70.55 17.167-4.653 20.821 19.153 49.707 43.993 49.707 12.22 0 26.315-11.034 28.952-25.012 2.014-10.659-23.699-6.388-22.775 0.665z"
         id="path23" />
    </g>
    <g
       transform="matrix(2.9890605,0,0,2.9890605,-247.56292,-519.06436)"
       id="g31">
      <path
         d="m245.08598 143.87685a22.752357 22.752357 0 0 0 -7.28719 16.66181 22.752357 22.752357 0 0 0 22.75222 22.75222 22.752357 22.752357 0 0 0 16.87882 -7.53257z"
         style="fill:url(#linearGradient4150-5);opacity:.2"
         id="path27" />
      <path
         d="m275.72262 143.61585-31.87625 32.33865a22.752357 22.752357 0 0 0 16.70464 7.33638 22.752357 22.752357 0 0 0 22.75221 -22.75222 22.752357 22.752357 0 0 0 -7.5806 -16.92281z"
         style="fill:url(#linearGradient4156-7);opacity:.2"
         id="path29" />
    </g>
    <g
       transform="matrix(.77713255 0 0 .77713255 493.85589 -84.677936)"
       style="fill:rgb(100.000%,100.000%,100.000%)"
       id="g45">
      <g
         style="fill:rgb(100.000%,100.000%,100.000%)"
         id="g43">
        <path
           d="m86.068 0c-24.602 0-29.217 35.041-15.377 35.041 13.838 0 39.98-35.041 15.377-35.041z"
           style="fill:rgb(100.000%,100.000%,100.000%)"
           id="path33" />
        <path
           d="m45.217 30.699c7.369 0.45 15.454-28.122 1.604-26.325-13.845 1.797-8.976 25.875-1.604 26.325z"
           style="fill:rgb(100.000%,100.000%,100.000%)"
           id="path35" />
        <path
           d="m11.445 48.453c5.241-2.307 0.675-24.872-8.237-18.718-8.908 6.155 2.996 21.024 8.237 18.718z"
           style="fill:rgb(100.000%,100.000%,100.000%)"
           id="path37" />
        <path
           d="m26.212 36.642c6.239-1.272 6.581-26.864-4.545-22.273-11.128 4.592-1.689 23.547 4.545 22.273z"
           style="fill:rgb(100.000%,100.000%,100.000%)"
           id="path39" />
        <path
           d="m58.791 93.913c1.107 8.454-6.202 12.629-13.36 7.179-22.787-17.349 37.729-26.004 33.74-49.706-3.311-19.674-63.676-13.617-70.55 17.167-4.653 20.821 19.153 49.707 43.993 49.707 12.22 0 26.315-11.034 28.952-25.012 2.014-10.659-23.699-6.388-22.775 0.665z"
           style="fill:rgb(100.000%,100.000%,100.000%)"
           id="path41" />
      </g>
    </g>
  </g>
</svg>
