<?xml version="1.0" encoding="UTF-8" standalone="no"?>
<svg
   xmlns:dc="http://purl.org/dc/elements/1.1/"
   xmlns:cc="http://creativecommons.org/ns#"
   xmlns:rdf="http://www.w3.org/1999/02/22-rdf-syntax-ns#"
   xmlns:svg="http://www.w3.org/2000/svg"
   xmlns="http://www.w3.org/2000/svg"
   xmlns:sodipodi="http://sodipodi.sourceforge.net/DTD/sodipodi-0.dtd"
   xmlns:inkscape="http://www.inkscape.org/namespaces/inkscape"
   width="512"
   height="512"
   version="1.1"
   viewBox="0 0 384 384"
   id="svg19"
   sodipodi:docname="gnome-todo.svg"
   inkscape:version="0.92.4 5da689c313, 2019-01-14">
  <metadata
     id="metadata23">
    <rdf:RDF>
      <cc:Work
         rdf:about="">
        <dc:format>image/svg+xml</dc:format>
        <dc:type
           rdf:resource="http://purl.org/dc/dcmitype/StillImage" />
      </cc:Work>
    </rdf:RDF>
  </metadata>
  <sodipodi:namedview
     pagecolor="#ffffff"
     bordercolor="#666666"
     borderopacity="1"
     objecttolerance="10"
     gridtolerance="10"
     guidetolerance="10"
     inkscape:pageopacity="0"
     inkscape:pageshadow="2"
     inkscape:window-width="1920"
     inkscape:window-height="1002"
     id="namedview21"
     showgrid="false"
     inkscape:zoom="0.4609375"
     inkscape:cx="46.644068"
     inkscape:cy="256"
     inkscape:window-x="0"
     inkscape:window-y="0"
     inkscape:window-maximized="1"
     inkscape:current-layer="svg19" />
  <defs
     id="defs7">
    <linearGradient
       id="b"
       x1="20"
       x2="20"
       y1="18"
       y2="38"
       gradientTransform="matrix(11.827,0,0,11.827,-44.363,-113.27)"
       gradientUnits="userSpaceOnUse">
      <stop
         stop-color="#fff"
         offset="0"
         id="stop2" />
      <stop
         stop-color="#fff"
         offset="1"
         id="stop4" />
    </linearGradient>
  </defs>
  <path
     d="m88.094 75.953c-2.1172 0-4.1289 0.33984-6.0977 0.8125-11.43 2.7461-19.918 12.91-19.918 25.207v208.15c0 14.414 11.602 26.016 26.016 26.016h208.15c14.414 0 26.02-11.602 26.02-26.016v-208.15c0-12.297-8.4883-22.461-19.922-25.207-2.0156-0.23438-4.0117-0.8125-6.0976-0.8125z"
     style="fill:#2a61bf;fill-opacity:1"
     id="path9" />
  <path
     d="m97.555 64.129c-26.207 0-47.305 21.098-47.305 47.305v189.23c0 26.207 21.098 47.305 47.305 47.305h189.23c26.207 0 47.309-21.098 47.309-47.305v-189.23c0-26.207-21.102-47.305-47.309-47.305zm0 23.652h189.23c13.105 0 23.652 10.547 23.652 23.652v189.23c0 13.102-10.547 23.652-23.652 23.652h-189.23c-13.102 0-23.652-10.551-23.652-23.652v-189.23c0-13.105 10.551-23.652 23.652-23.652z"
     style="fill:#1d2d62;fill-opacity:1"
     id="path11" />
  <path
     d="m351.28 53.677c-5.1758 1.1172-9.9453 4.0312-13.305 8.1289l-139.21 160.25-53.219-53.219c-8.9024-8.9023-25.102-8.9023-34.004-4e-3 -8.9023 8.9024-8.9023 25.102 4e-3 34.004l70.957 70.961 18.48 17.738 16.262-19.219 156.21-179.46c13.422-14.613-2.7383-43.164-22.176-39.176z"
     style="opacity:.3"
     id="path13" />
  <path
     d="m351.28 46.177c-5.1758 1.1172-9.9453 4.0312-13.305 8.1289l-139.21 160.25-53.219-53.219c-8.9024-8.9023-25.102-8.9023-34.004-4e-3 -8.9023 8.9024-8.9023 25.102 4e-3 34.004l70.957 70.961 18.48 17.738 16.262-19.219 156.21-179.46c13.422-14.613-2.7383-43.164-22.176-39.176z"
     style="fill:#d5e1f6;fill-opacity:1"
     id="path15" />
  <path
     d="m73.903 293.16v7.5c0 13.102 10.55 23.651 23.651 23.651h189.22c13.106 0 23.653-10.55 23.653-23.651v-7.5c0 13.102-10.547 23.651-23.653 23.651h-189.22c-13.102 0-23.651-10.55-23.651-23.651z"
     style="fill:#020203;opacity:.3;stroke-width:.99997"
     id="path17" />
</svg>
