<?xml version="1.0" encoding="UTF-8" standalone="no"?>
<svg
   xmlns:dc="http://purl.org/dc/elements/1.1/"
   xmlns:cc="http://creativecommons.org/ns#"
   xmlns:rdf="http://www.w3.org/1999/02/22-rdf-syntax-ns#"
   xmlns:svg="http://www.w3.org/2000/svg"
   xmlns="http://www.w3.org/2000/svg"
   xmlns:xlink="http://www.w3.org/1999/xlink"
   xmlns:sodipodi="http://sodipodi.sourceforge.net/DTD/sodipodi-0.dtd"
   xmlns:inkscape="http://www.inkscape.org/namespaces/inkscape"
   id="svg4569"
   height="512"
   width="512"
   version="1.0"
   sodipodi:docname="mate-inhibit-applet.svg"
   inkscape:version="0.92.3 (2405546, 2018-03-11)">
  <sodipodi:namedview
     pagecolor="#ffffff"
     bordercolor="#666666"
     borderopacity="1"
     objecttolerance="10"
     gridtolerance="10"
     guidetolerance="10"
     inkscape:pageopacity="0"
     inkscape:pageshadow="2"
     inkscape:window-width="1366"
     inkscape:window-height="707"
     id="namedview45"
     showgrid="false"
     inkscape:zoom="0.65186405"
     inkscape:cx="240.81243"
     inkscape:cy="269.46067"
     inkscape:window-x="0"
     inkscape:window-y="33"
     inkscape:window-maximized="1"
     inkscape:current-layer="svg4569" />
  <metadata
     id="metadata46">
    <rdf:RDF>
      <cc:Work
         rdf:about="">
        <dc:format>image/svg+xml</dc:format>
        <dc:type
           rdf:resource="http://purl.org/dc/dcmitype/StillImage" />
        <dc:title></dc:title>
      </cc:Work>
    </rdf:RDF>
  </metadata>
  <defs
     id="defs4571">
    <linearGradient
       id="linearGradient3912">
      <stop
         offset="0"
         style="stop-color:#787878;stop-opacity:1"
         id="stop3914" />
      <stop
         offset="0.35046947"
         style="stop-color:#b4b4b4;stop-opacity:1"
         id="stop3916" />
      <stop
         offset="0.49417919"
         style="stop-color:#c8c8c8;stop-opacity:1"
         id="stop3918" />
      <stop
         offset="0.58907253"
         style="stop-color:#e6e6e6;stop-opacity:1"
         id="stop3920" />
      <stop
         offset="1"
         style="stop-color:#8c8c8c;stop-opacity:1"
         id="stop3922" />
    </linearGradient>
    <linearGradient
       id="linearGradient6592-2-7">
      <stop
         offset="0"
         style="stop-color:#ffffff;stop-opacity:0.27450982"
         id="stop6594-0-2" />
      <stop
         offset="1"
         style="stop-color:#ffffff;stop-opacity:0"
         id="stop6596-2-5" />
    </linearGradient>
    <linearGradient
       id="linearGradient10691-1">
      <stop
         offset="0"
         style="stop-color:#000000;stop-opacity:1"
         id="stop10693-3" />
      <stop
         offset="1"
         style="stop-color:#000000;stop-opacity:0"
         id="stop10695-1" />
    </linearGradient>
    <linearGradient
       gradientTransform="matrix(9.9769127,0,0,9.4968745,-3317.4131,-461.47489)"
       gradientUnits="userSpaceOnUse"
       xlink:href="#linearGradient3912"
       id="linearGradient3221"
       y2="94.396416"
       x2="361.10583"
       y1="87.050117"
       x1="361.10583" />
    <radialGradient
       gradientTransform="matrix(19.609558,0,0,4.1283273,124.56278,120.73303)"
       gradientUnits="userSpaceOnUse"
       xlink:href="#linearGradient10691-1"
       id="radialGradient3226"
       fy="73.615715"
       fx="6.702713"
       r="7.228416"
       cy="73.615715"
       cx="6.702713" />
    <linearGradient
       id="linearGradient4084">
      <stop
         offset="0"
         style="stop-color:#ffffff;stop-opacity:1"
         id="stop4086" />
      <stop
         offset="0.01596775"
         style="stop-color:#ffffff;stop-opacity:0.23529412"
         id="stop4088" />
      <stop
         offset="0.99257565"
         style="stop-color:#ffffff;stop-opacity:0.15686275"
         id="stop4090" />
      <stop
         offset="1"
         style="stop-color:#ffffff;stop-opacity:0.39215687"
         id="stop4092" />
    </linearGradient>
    <linearGradient
       id="outerBackgroundGradient-5-0">
      <stop
         id="stop3864-8-6-4"
         offset="0"
         style="stop-color:#0036cb;stop-opacity:1" />
      <stop
         id="stop3866-9-1-86"
         offset="1"
         style="stop-color:#0fdb00;stop-opacity:1" />
    </linearGradient>
    <linearGradient
       xlink:href="#linearGradient6592-2-7"
       id="linearGradient3141"
       gradientUnits="userSpaceOnUse"
       gradientTransform="matrix(11.563494,0,0,11.697807,13.166596,124.82849)"
       x1="10"
       y1="-3"
       x2="20"
       y2="12" />
    <linearGradient
       xlink:href="#linearGradient4084"
       id="linearGradient3144"
       gradientUnits="userSpaceOnUse"
       gradientTransform="matrix(12.400257,0,0,8.6700979,-41.606263,-14.574369)"
       x1="23.99999"
       y1="5.7531762"
       x2="23.99999"
       y2="42.121033" />
    <linearGradient
       xlink:href="#outerBackgroundGradient-5-0"
       id="linearGradient3148"
       gradientUnits="userSpaceOnUse"
       gradientTransform="matrix(10.664852,0,0,13.003648,32.03815,146.26633)"
       x1="-2.5488214"
       y1="28.788479"
       x2="44.631618"
       y2="-12.349135" />
    <linearGradient
       id="linearGradient4054-5">
      <stop
         offset="0"
         style="stop-color:#ffffff;stop-opacity:1"
         id="stop4056-0" />
      <stop
         offset="0.01719457"
         style="stop-color:#ffffff;stop-opacity:0.23529412"
         id="stop4058-4" />
      <stop
         offset="1"
         style="stop-color:#ffffff;stop-opacity:0.15686275"
         id="stop4060-4" />
      <stop
         offset="1"
         style="stop-color:#ffffff;stop-opacity:0.39215687"
         id="stop4062-0" />
    </linearGradient>
    <linearGradient
       xlink:href="#linearGradient4054-5"
       id="linearGradient3152-7"
       gradientUnits="userSpaceOnUse"
       gradientTransform="matrix(4.5366797,0,0,3.1252681,27.212142,49.812456)"
       x1="47.546879"
       y1="121.84093"
       x2="47.546879"
       y2="99.079079" />
    <linearGradient
       xlink:href="#linearGradient10691-1"
       id="linearGradient3148-3"
       gradientUnits="userSpaceOnUse"
       gradientTransform="matrix(10.664852,0,0,12.508438,41.430903,566.40042)"
       x1="15"
       y1="24.618645"
       x2="15"
       y2="2" />
  </defs>
  <path
     style="display:inline;overflow:visible;visibility:visible;fill:url(#linearGradient3221);fill-opacity:1;fill-rule:nonzero;stroke:none;stroke-width:3.7237227;stroke-linecap:round;stroke-linejoin:round;stroke-miterlimit:4;stroke-dasharray:none;stroke-dashoffset:0.5;stroke-opacity:1;marker:none;enable-background:new"
     id="rect1789"
     d="m 194.45239,357.63171 c 0,0 1.48275,40.4297 -5.59752,49.85323 -7.08026,9.42361 -21.16869,15.43025 -21.16869,15.43025 -9.0405,0.98999 -9.11528,13.0563 0,13.0563 h 176.62693 c 9.11529,0 9.0424,-12.07896 0,-13.0563 0,0 -14.08782,-6.00667 -21.16797,-15.43025 -7.08016,-9.4235 -5.59752,-49.85323 -5.59752,-49.85323 H 194.51559 Z"
     inkscape:connector-curvature="0" />
  <path
     id="rect2722-0-5"
     d="M 21.417879,21.41168 H 490.17837 V 362.98972 H 21.417879 Z"
     style="display:inline;fill:#000000;fill-opacity:1;stroke:none;stroke-width:4.3275032"
     inkscape:connector-curvature="0" />
  <path
     style="color:#000000;clip-rule:nonzero;display:inline;overflow:visible;visibility:visible;opacity:0.4;isolation:auto;mix-blend-mode:normal;color-interpolation:sRGB;color-interpolation-filters:linearRGB;solid-color:#000000;solid-opacity:1;fill:none;fill-opacity:1;fill-rule:nonzero;stroke:#000000;stroke-width:3.7237227;stroke-linecap:round;stroke-linejoin:round;stroke-miterlimit:4;stroke-dasharray:none;stroke-dashoffset:0.5;stroke-opacity:1;marker:none;color-rendering:auto;image-rendering:auto;shape-rendering:auto;text-rendering:auto;enable-background:new"
     id="rect1789-8"
     d="m 194.45239,357.63171 c 0,0 1.48275,40.4297 -5.59752,49.85323 -7.08026,9.42361 -21.16869,15.43025 -21.16869,15.43025 -9.0405,0.98999 -9.11528,13.0563 0,13.0563 h 176.62693 c 9.11529,0 9.0424,-12.07896 0,-13.0563 0,0 -14.08782,-6.00667 -21.16797,-15.43025 -7.08016,-9.4235 -5.59752,-49.85323 -5.59752,-49.85323 H 194.51559 Z"
     inkscape:connector-curvature="0" />
  <path
     id="rect2722-0"
     d="M 42.702992,42.237155 H 469.29701 V 341.32109 H 42.702992 Z"
     style="display:inline;fill:url(#linearGradient3148);fill-opacity:1;stroke:none;stroke-width:3.86296582"
     inkscape:connector-curvature="0" />
  <g
     style="fill-rule:evenodd"
     transform="matrix(1.3333333,0,0,1.3333333,2.29569,-24.79423)"
     id="g31">
    <path
       style="opacity:0.3;stroke-width:0.9375"
       inkscape:connector-curvature="0"
       d="m 384,279.36 c 0,49.706 -40.294,90 -90,90 -49.706,0 -90,-40.294 -90,-90 0,-49.706 40.294,-90 90,-90 49.706,0 90,40.294 90,90 z"
       id="path25" />
    <path
       style="fill:#4aaee6;stroke-width:0.9375"
       inkscape:connector-curvature="0"
       d="m 384,271.86 c 0,49.706 -40.294,90 -90,90 -49.706,0 -90,-40.294 -90,-90 0,-49.706 40.294,-90 90,-90 49.706,0 90,40.294 90,90 z"
       id="path27" />
    <path
       style="opacity:0.3;stroke-width:0.9375"
       inkscape:connector-curvature="0"
       d="m 294,247.85 c -10.906,0.10253 -21.878,2.5012 -31.377,7.6685 -3.7866,2.3657 -8.3313,5.4236 -11.755,8.5034 -5.387,5.0647 -10.001,10.968 -13.118,17.589 8.5437,18.091 27.32,31.351 47.978,33.31 13.553,1.4722 27.737,-0.78003 39.65,-7.218 3.7866,-2.3657 8.3313,-5.4236 11.755,-8.5034 5.387,-5.0757 10.001,-10.979 13.118,-17.589 -8.5401,-18.087 -27.323,-31.355 -47.978,-33.31 -2.7466,-0.31495 -5.5151,-0.45044 -8.2727,-0.45044 z m 0.0219,11.25 c 12.038,-0.26734 22.694,10.507 22.467,22.478 0.38453,13.231 -12.795,24.653 -25.829,22.181 -13.162,-1.5454 -22.412,-16.318 -18.083,-28.828 2.7685,-9.2029 11.811,-15.926 21.457,-15.82 z M 294,270.35 c -2.9883,0 -5.8521,1.1865 -7.9614,3.2995 -2.1094,2.113 -3.2922,4.9768 -3.2886,7.9614 0.004,6.2073 5.0391,11.239 11.25,11.239 6.2109,0 11.246,-5.0318 11.25,-11.239 -0.007,-6.2036 -5.0427,-11.228 -11.25,-11.228 z"
       id="path29" />
  </g>
  <path
     inkscape:connector-curvature="0"
     style="fill:#ffffff;fill-rule:evenodd;stroke-width:1.25"
     d="m 394.29568,296.30709 c -14.54134,0.13672 -29.17067,3.33493 -41.83601,10.22467 -5.0488,3.15426 -11.1084,7.23146 -15.67333,11.33786 -7.18266,6.75294 -13.33466,14.624 -17.49066,23.452 11.3916,24.12134 36.42666,41.80134 63.97066,44.41334 18.07067,1.96293 36.98267,-1.04004 52.86667,-9.624 5.0488,-3.15427 11.1084,-7.23147 15.67333,-11.33787 7.18267,-6.7676 13.33467,-14.63867 17.49067,-23.452 -11.3868,-24.116 -36.43067,-41.80667 -63.97067,-44.41333 -3.66213,-0.41992 -7.35346,-0.60059 -11.03026,-0.60059 z m 0.0292,15 c 16.05066,-0.35644 30.25866,14.00933 29.956,29.97067 0.5127,17.64133 -17.06,32.87066 -34.43867,29.57466 -17.54934,-2.06053 -29.88267,-21.75733 -24.11067,-38.43733 3.69133,-12.27053 15.748,-21.23467 28.60934,-21.09333 z m -0.0292,15 c -3.9844,0 -7.8028,1.582 -10.6152,4.39933 -2.81254,2.81734 -4.3896,6.63574 -4.3848,10.6152 0.005,8.2764 6.7188,14.98534 15,14.98534 8.2812,0 14.99466,-6.70907 15,-14.98534 -0.009,-8.27146 -6.7236,-14.97066 -15,-14.97066 z"
     id="path33" />
</svg>
