<?xml version="1.0" encoding="UTF-8" standalone="no"?>
<svg
   xmlns:dc="http://purl.org/dc/elements/1.1/"
   xmlns:cc="http://creativecommons.org/ns#"
   xmlns:rdf="http://www.w3.org/1999/02/22-rdf-syntax-ns#"
   xmlns:svg="http://www.w3.org/2000/svg"
   xmlns="http://www.w3.org/2000/svg"
   xmlns:sodipodi="http://sodipodi.sourceforge.net/DTD/sodipodi-0.dtd"
   xmlns:inkscape="http://www.inkscape.org/namespaces/inkscape"
   width="512"
   height="512"
   version="1.1"
   viewBox="0 0 384 384"
   id="svg19"
   sodipodi:docname="preferences-system-privacy.svg"
   inkscape:version="0.92.4 5da689c313, 2019-01-14">
  <metadata
     id="metadata23">
    <rdf:RDF>
      <cc:Work
         rdf:about="">
        <dc:format>image/svg+xml</dc:format>
        <dc:type
           rdf:resource="http://purl.org/dc/dcmitype/StillImage" />
        <dc:title></dc:title>
      </cc:Work>
    </rdf:RDF>
  </metadata>
  <sodipodi:namedview
     pagecolor="#ffffff"
     bordercolor="#666666"
     borderopacity="1"
     objecttolerance="10"
     gridtolerance="10"
     guidetolerance="10"
     inkscape:pageopacity="0"
     inkscape:pageshadow="2"
     inkscape:window-width="1920"
     inkscape:window-height="1002"
     id="namedview21"
     showgrid="false"
     inkscape:zoom="2.6074563"
     inkscape:cx="196.74008"
     inkscape:cy="297.6226"
     inkscape:window-x="0"
     inkscape:window-y="0"
     inkscape:window-maximized="1"
     inkscape:current-layer="svg19" />
  <defs
     id="defs5">
    <clipPath
       id="c">
      <rect
         width="384"
         height="384"
         id="rect2" />
    </clipPath>
  </defs>
  <path
     d="m331.64 80.468-138.07-49.441c-1.0142-0.36342-2.1213-0.36342-3.1355 0l-138.08 49.441c-1.8847 0.67189-3.144 2.4805-3.144 4.5089 0 50.037 13.041 107.87 35.775 158.68 18.441 41.222 51.605 96.208 104.86 124.06 0.68035 0.35496 1.4198 0.53245 2.1594 0.53245 0.7395 0 1.479-0.17749 2.1594-0.53245 53.249-27.856 86.412-82.837 104.86-124.06 22.735-50.81 35.775-108.65 35.775-158.68 0-2.0284-1.2593-3.837-3.144-4.5089z"
     fill="#000f17"
     opacity=".3"
     id="path7" />
  <path
     d="m331.64 72.968-138.07-49.441c-1.0142-0.36341-2.1213-0.36341-3.1355 0l-138.08 49.441c-1.8847 0.67189-3.144 2.4805-3.144 4.5089 0 50.037 13.041 107.87 35.775 158.68 18.441 41.222 51.605 96.208 104.86 124.06 0.68035 0.35496 1.4198 0.53245 2.1594 0.53245 0.7395 0 1.479-0.17749 2.1594-0.53245 53.249-27.856 86.412-82.837 104.86-124.06 22.735-50.81 35.775-108.65 35.775-158.68 0-2.0284-1.2593-3.837-3.144-4.5089z"
     fill="#49ade5"
     id="path9"
     style="fill:#ffb100;fill-opacity:1" />
  <path
     d="m192.87 23.343v337.31c0.44481-0.0845 0.88209-0.22622 1.2964-0.44238 53.249-27.856 86.412-82.838 104.86-124.06 22.735-50.81 35.776-108.65 35.776-158.68 0-2.0284-1.2604-3.8369-3.145-4.5088h-0.0117l-138.07-49.441c-0.22915-0.0821-0.46369-0.13957-0.70019-0.18457z"
     opacity=".1"
     id="path15" />
  <path
     transform="scale(.75)"
     d="m256 31.006c-0.7071 0-1.4157 0.12101-2.0918 0.36328l-184.11 65.922c-2.5129 0.89585-4.1934 3.3072-4.1934 6.0117 0 2.9299 0.046591 5.8872 0.11328 8.8555 0.39928-2.2206 1.9294-4.1005 4.0801-4.8672l184.11-65.922c1.3523-0.48455 2.8294-0.48455 4.1816 0l184.09 65.922h0.01953c2.1495 0.76629 3.6797 2.6443 4.0801 4.8633 0.06666-2.9673 0.11133-5.9228 0.11133-8.8516 0-2.7045-1.6785-5.1159-4.1914-6.0117h-0.01953l-184.09-65.922c-0.67614-0.24227-1.3827-0.36328-2.0898-0.36328z"
     fill="#e7e7e7"
     opacity=".3"
     stroke-width="1.3333"
     id="path17" />
  <circle
     style="fill:#a57200;fill-opacity:1;stroke-width:0.43667763"
     id="path830"
     cx="192"
     cy="164.19919"
     r="36" />
  <rect
     style="fill:#a57200;fill-opacity:1;stroke-width:0.22893189"
     id="rect832"
     width="31.397812"
     height="90.632599"
     x="176.58873"
     y="165.16821" />
</svg>
