<?xml version="1.0" encoding="UTF-8" standalone="no"?>
<svg
   xmlns:dc="http://purl.org/dc/elements/1.1/"
   xmlns:cc="http://creativecommons.org/ns#"
   xmlns:rdf="http://www.w3.org/1999/02/22-rdf-syntax-ns#"
   xmlns:svg="http://www.w3.org/2000/svg"
   xmlns="http://www.w3.org/2000/svg"
   xmlns:xlink="http://www.w3.org/1999/xlink"
   xmlns:sodipodi="http://sodipodi.sourceforge.net/DTD/sodipodi-0.dtd"
   xmlns:inkscape="http://www.inkscape.org/namespaces/inkscape"
   width="512"
   height="512"
   version="1.1"
   viewBox="0 0 384 384"
   id="svg12"
   sodipodi:docname="system-log-out.svg"
   inkscape:version="0.92.4 5da689c313, 2019-01-14">
  <metadata
     id="metadata18">
    <rdf:RDF>
      <cc:Work
         rdf:about="">
        <dc:format>image/svg+xml</dc:format>
        <dc:type
           rdf:resource="http://purl.org/dc/dcmitype/StillImage" />
      </cc:Work>
    </rdf:RDF>
  </metadata>
  <defs
     id="defs16">
    <linearGradient
       inkscape:collect="always"
       id="linearGradient823">
      <stop
         style="stop-color:#dcdcdc;stop-opacity:1"
         offset="0"
         id="stop819" />
      <stop
         style="stop-color:#f0f0f0;stop-opacity:1"
         offset="1"
         id="stop821" />
    </linearGradient>
    <linearGradient
       inkscape:collect="always"
       xlink:href="#linearGradient823"
       id="linearGradient825"
       x1="193.22034"
       y1="344.94916"
       x2="194.03391"
       y2="45.559322"
       gradientUnits="userSpaceOnUse" />
  </defs>
  <sodipodi:namedview
     pagecolor="#ffffff"
     bordercolor="#666666"
     borderopacity="1"
     objecttolerance="10"
     gridtolerance="10"
     guidetolerance="10"
     inkscape:pageopacity="0"
     inkscape:pageshadow="2"
     inkscape:window-width="1366"
     inkscape:window-height="690"
     id="namedview14"
     showgrid="false"
     inkscape:zoom="0.4609375"
     inkscape:cx="154.0339"
     inkscape:cy="256"
     inkscape:window-x="0"
     inkscape:window-y="0"
     inkscape:window-maximized="1"
     inkscape:current-layer="svg12" />
  <path
     d="m360 192c0 92.785-75.215 168-168 168s-168-75.215-168-168 75.215-168 168-168 168 75.215 168 168z"
     fill="#0f2b5c"
     id="path2"
     style="fill:url(#linearGradient825);fill-opacity:1" />
  <path
     d="m 192,87.75 c 59.648,0 108,48.352 108,108 0,59.648 -48.352,108 -108,108 -59.648,0 -108,-48.352 -108,-108 0,-59.648 48.352,-108 108,-108 z m 0,24 c -46.391,0 -84,37.609 -84,84 0,46.391 37.609,84 84,84 46.391,0 84,-37.609 84,-84 0,-46.391 -37.609,-84 -84,-84 z m 0,48 23.789,18.469 24.215,17.531 -24.203,17.531 -23.797,18.469 0.28907,-24 h -36.289 c -6.6484,0 -12,-5.3516 -12,-12 0,-6.6484 5.3516,-12 12,-12 h 36.281 l -0.28125,-24 z"
     id="path4"
     inkscape:connector-curvature="0"
     style="opacity:0.31000001;fill:#000205" />
  <path
     d="m 192,80.25 c 59.648,0 108,48.352 108,108 0,59.648 -48.352,108 -108,108 -59.648,0 -108,-48.352 -108,-108 0,-59.648 48.352,-108 108,-108 z m 0,24 c -46.391,0 -84,37.609 -84,84 0,46.391 37.609,84 84,84 46.391,0 84,-37.609 84,-84 0,-46.391 -37.609,-84 -84,-84 z m 0,48 23.789,18.469 24.215,17.531 -24.203,17.531 -23.797,18.469 0.28906,-24 h -36.289 c -6.6484,0 -12,-5.3516 -12,-12 0,-6.6484 5.3516,-12 12,-12 h 36.281 l -0.28125,-24 z"
     id="path6"
     style="fill:#ffcc00;fill-opacity:1"
     inkscape:connector-curvature="0" />
  <path
     transform="scale(.75)"
     d="m32.062 251c-0.036438 1.6631-0.0625 3.3282-0.0625 5 0 123.71 100.29 224 224 224s224-100.29 224-224c0-1.6718-0.02606-3.3369-0.0625-5-2.66 121.4-101.9 219-223.94 219s-221.28-97.597-223.94-219z"
     fill="#000b1d"
     opacity=".3"
     stroke-width="1.3333"
     id="path8" />
  <path
     transform="scale(.75)"
     d="m256 32c-123.71 0-224 100.29-224 224 0 1.6718 0.026062 3.3369 0.0625 5 2.66-121.4 101.9-219 223.94-219 122.04 0 221.28 97.597 223.94 219 0.03644-1.6631 0.0625-3.3282 0.0625-5 0-123.71-100.29-224-224-224z"
     fill="#fff"
     opacity=".1"
     stroke-width="1.3333"
     id="path10" />
</svg>
