<?xml version="1.0" encoding="UTF-8" standalone="no"?>
<svg
   xmlns:dc="http://purl.org/dc/elements/1.1/"
   xmlns:cc="http://creativecommons.org/ns#"
   xmlns:rdf="http://www.w3.org/1999/02/22-rdf-syntax-ns#"
   xmlns:svg="http://www.w3.org/2000/svg"
   xmlns="http://www.w3.org/2000/svg"
   xmlns:sodipodi="http://sodipodi.sourceforge.net/DTD/sodipodi-0.dtd"
   xmlns:inkscape="http://www.inkscape.org/namespaces/inkscape"
   width="512"
   height="512"
   version="1"
   id="svg14"
   sodipodi:docname="audio-input-microphone.svg"
   inkscape:version="0.92.4 5da689c313, 2019-01-14">
  <metadata
     id="metadata20">
    <rdf:RDF>
      <cc:Work
         rdf:about="">
        <dc:format>image/svg+xml</dc:format>
        <dc:type
           rdf:resource="http://purl.org/dc/dcmitype/StillImage" />
        <dc:title></dc:title>
      </cc:Work>
    </rdf:RDF>
  </metadata>
  <defs
     id="defs18" />
  <sodipodi:namedview
     pagecolor="#ffffff"
     bordercolor="#666666"
     borderopacity="1"
     objecttolerance="10"
     gridtolerance="10"
     guidetolerance="10"
     inkscape:pageopacity="0"
     inkscape:pageshadow="2"
     inkscape:window-width="1366"
     inkscape:window-height="690"
     id="namedview16"
     showgrid="false"
     inkscape:zoom="0.30729167"
     inkscape:cx="20.661941"
     inkscape:cy="15.934491"
     inkscape:window-x="0"
     inkscape:window-y="0"
     inkscape:window-maximized="1"
     inkscape:current-layer="svg14" />
  <rect
     style="opacity:0.2;stroke-width:11.46341419"
     width="275.12195"
     height="229.26831"
     x="-307.58536"
     y="-370.63412"
     rx="114.63416"
     ry="114.63416"
     transform="matrix(0,-1,-1,0,0,0)"
     id="rect2" />
  <path
     style="opacity:0.2;stroke-width:11.46341419"
     d="m 106.97561,181.4878 a 22.926829,22.926829 0 0 0 -22.92683,22.92683 v 28.65854 c 0,72.88553 64.71087,132.57336 149.02439,141.88211 v 70.19106 H 141.36585 A 22.926829,22.926829 0 0 0 118.43902,468.07318 22.926829,22.926829 0 0 0 141.36585,491 h 229.2683 a 22.926829,22.926829 0 0 0 22.92683,-22.92682 22.926829,22.926829 0 0 0 -22.92683,-22.92684 h -91.70733 v -70.19106 c 84.31353,-9.30875 149.0244,-68.99658 149.0244,-141.88211 v -28.65854 a 22.926829,22.926829 0 0 0 -22.92683,-22.92683 22.926829,22.926829 0 0 0 -22.92683,22.92683 v 21.02368 c 0,58.21121 -56.2395,105.07388 -126.09756,105.07388 -69.85805,0 -126.09756,-46.86267 -126.09756,-105.07388 V 204.41463 A 22.926829,22.926829 0 0 0 106.97561,181.4878 Z"
     id="path4"
     inkscape:connector-curvature="0" />
  <path
     style="fill:#4f4f4f;stroke-width:11.46341419"
     d="m 106.97561,170.02439 a 22.926829,22.926829 0 0 0 -22.92683,22.92683 v 28.65854 c 0,72.88553 64.71087,132.57335 149.02439,141.8821 v 70.19107 h -91.70732 a 22.926829,22.926829 0 0 0 -22.92683,22.92682 22.926829,22.926829 0 0 0 22.92683,22.92683 h 229.2683 a 22.926829,22.926829 0 0 0 22.92683,-22.92683 22.926829,22.926829 0 0 0 -22.92683,-22.92682 h -91.70733 v -70.19107 c 84.31353,-9.30875 149.0244,-68.99657 149.0244,-141.8821 v -28.65854 a 22.926829,22.926829 0 0 0 -22.92683,-22.92683 22.926829,22.926829 0 0 0 -22.92683,22.92683 v 21.02367 c 0,58.21122 -56.2395,105.07389 -126.09756,105.07389 -69.85805,0 -126.09756,-46.86267 -126.09756,-105.07389 v -21.02367 a 22.926829,22.926829 0 0 0 -22.92683,-22.92683 z"
     id="path6"
     inkscape:connector-curvature="0" />
  <rect
     style="fill:#8e8e8e;stroke-width:11.46341419"
     width="275.12195"
     height="229.26831"
     x="-296.12195"
     y="-370.63412"
     rx="114.63416"
     ry="114.63416"
     transform="matrix(0,-1,-1,0,0,0)"
     id="rect8" />
  <path
     style="opacity:0.1;fill:#ffffff;stroke-width:11.46341419"
     d="m 106.97561,170.02439 a 22.926829,22.926829 0 0 0 -22.92683,22.92683 v 11.46341 a 22.926829,22.926829 0 0 1 22.92683,-22.92683 22.926829,22.926829 0 0 1 22.92683,22.92683 v -11.46341 a 22.926829,22.926829 0 0 0 -22.92683,-22.92683 z m 298.04878,0 a 22.926829,22.926829 0 0 0 -22.92683,22.92683 v 11.46341 a 22.926829,22.926829 0 0 1 22.92683,-22.92683 22.926829,22.926829 0 0 1 22.92683,22.92683 v -11.46341 a 22.926829,22.926829 0 0 0 -22.92683,-22.92683 z m -275.12195,43.9505 v 11.46342 c 0,58.21121 56.23951,105.07388 126.09756,105.07388 69.85806,0 126.09756,-46.86267 126.09756,-105.07388 v -11.46342 c 0,58.21122 -56.2395,105.07389 -126.09756,105.07389 -69.85805,0 -126.09756,-46.86267 -126.09756,-105.07389 z m 11.46341,219.70804 a 22.926829,22.926829 0 0 0 -22.92683,22.92682 22.926829,22.926829 0 0 0 0.73882,5.6869 22.926829,22.926829 0 0 1 22.18801,-17.1503 h 91.70732 v -11.46341 z m 137.56097,0 v 11.46341 h 91.70733 a 22.926829,22.926829 0 0 1 22.18798,17.23994 22.926829,22.926829 0 0 0 0.73885,-5.77653 22.926829,22.926829 0 0 0 -22.92683,-22.92682 z"
     id="path10"
     inkscape:connector-curvature="0" />
  <path
     style="opacity:0.1;fill:#ffffff;stroke-width:11.46341419"
     d="m 256,21.000002 c -63.50731,0 -114.63415,51.12683 -114.63415,114.634148 v 11.46341 c 0,-63.507318 51.12684,-114.634148 114.63415,-114.634148 63.50732,0 114.63415,51.12683 114.63415,114.634148 V 135.63415 C 370.63415,72.126832 319.50732,21.000002 256,21.000002 Z"
     id="path12"
     inkscape:connector-curvature="0" />
</svg>
