<?xml version="1.0" encoding="UTF-8" standalone="no"?>
<svg
   xmlns:dc="http://purl.org/dc/elements/1.1/"
   xmlns:cc="http://creativecommons.org/ns#"
   xmlns:rdf="http://www.w3.org/1999/02/22-rdf-syntax-ns#"
   xmlns:svg="http://www.w3.org/2000/svg"
   xmlns="http://www.w3.org/2000/svg"
   xmlns:xlink="http://www.w3.org/1999/xlink"
   xmlns:sodipodi="http://sodipodi.sourceforge.net/DTD/sodipodi-0.dtd"
   xmlns:inkscape="http://www.inkscape.org/namespaces/inkscape"
   width="512"
   height="512"
   version="1.1"
   viewBox="0 0 384 384"
   id="svg79"
   sodipodi:docname="noise.svg"
   inkscape:version="0.92.3 (2405546, 2018-03-11)">
  <metadata
     id="metadata83">
    <rdf:RDF>
      <cc:Work
         rdf:about="">
        <dc:format>image/svg+xml</dc:format>
        <dc:type
           rdf:resource="http://purl.org/dc/dcmitype/StillImage" />
      </cc:Work>
    </rdf:RDF>
  </metadata>
  <sodipodi:namedview
     pagecolor="#ffffff"
     bordercolor="#666666"
     borderopacity="1"
     objecttolerance="10"
     gridtolerance="10"
     guidetolerance="10"
     inkscape:pageopacity="0"
     inkscape:pageshadow="2"
     inkscape:window-width="1366"
     inkscape:window-height="707"
     id="namedview81"
     showgrid="false"
     inkscape:zoom="2.6074563"
     inkscape:cx="423.81611"
     inkscape:cy="248.34744"
     inkscape:window-x="0"
     inkscape:window-y="33"
     inkscape:window-maximized="1"
     inkscape:current-layer="svg79" />
  <defs
     id="defs5">
    <linearGradient
       inkscape:collect="always"
       id="linearGradient894">
      <stop
         style="stop-color:#ff9025;stop-opacity:1"
         offset="0"
         id="stop890" />
      <stop
         style="stop-color:#fc7c00;stop-opacity:1"
         offset="1"
         id="stop892" />
    </linearGradient>
    <clipPath
       id="f">
      <rect
         width="384"
         height="384"
         id="rect2" />
    </clipPath>
    <linearGradient
       inkscape:collect="always"
       xlink:href="#linearGradient894"
       id="linearGradient896"
       x1="167.07204"
       y1="52.064789"
       x2="151.23151"
       y2="330.30209"
       gradientUnits="userSpaceOnUse" />
  </defs>
  <g
     id="g77"
     transform="matrix(1.2017919,0,0,1.2017919,-3.1782153,-38.742543)"
     style="fill-rule:evenodd">
    <path
       d="m 53.121,45.344 h 218.57 c 20.641,0 37.371,16.734 37.371,37.375 v 218.56 c 0,20.641 -16.73,37.371 -37.371,37.371 H 53.121 C 32.48,338.65 15.75,321.92 15.75,301.279 V 82.719 c 0,-20.641 16.73,-37.375 37.371,-37.375 z"
       id="path67"
       style="fill:url(#linearGradient896);fill-opacity:1"
       inkscape:connector-curvature="0" />
    <path
       d="m 162.96,132.58 -0.40234,45.906 -0.39844,45.902 -3.3789,-1.0977 c -1.2812,-0.41406 -3.5938,-0.92969 -5.9062,-1.3438 -1.8086,-0.44922 -3.6641,-0.67969 -5.5273,-0.69141 -12.699,0 -22.996,10.113 -22.996,22.586 0.004,12.473 10.297,22.582 22.996,22.582 0.58594,0 1.168,-0.0234 1.7539,-0.0703 5.793,-0.26172 14.605,-3.6289 17.457,-10.133 2.4648,-3.6758 3.7773,-7.9805 3.7852,-12.379 -0.004,-0.44531 -0.0195,-0.88672 -0.0469,-1.332 l 0.97656,-33.715 c 0,-22.746 0.60547,-40.883 1.3789,-41.359 1.8047,-1.1172 13.188,11.852 17.18,19.574 2.1992,4.25 3.4141,10.312 4.082,20.41 0.89063,13.387 1.0859,14.055 2.875,9.8242 3.4219,-8.0742 4.5,-17.727 3.0156,-26.957 -1.7852,-11.074 -5.2031,-17.906 -14.211,-28.387 -7.8828,-9.1758 -10.984,-14.48 -13.605,-23.273 -1.4492,-4.8633 -2.5078,-6.0469 -5.4141,-6.0469 z"
       id="path69"
       inkscape:connector-curvature="0"
       style="opacity:0.3" />
    <path
       d="m 162.96,125.08 -0.40234,45.906 -0.39844,45.902 -3.3789,-1.0977 c -1.2812,-0.41406 -3.5938,-0.92969 -5.9062,-1.3438 -1.8086,-0.44922 -3.6641,-0.67969 -5.5273,-0.69141 -12.699,0 -22.996,10.113 -22.996,22.586 0.004,12.473 10.297,22.582 22.996,22.582 0.58594,0 1.168,-0.0234 1.7539,-0.0703 5.793,-0.26172 14.605,-3.6289 17.457,-10.133 2.4648,-3.6758 3.7773,-7.9805 3.7852,-12.379 -0.004,-0.44531 -0.0195,-0.88672 -0.0469,-1.332 l 0.97656,-33.715 c 0,-22.746 0.60547,-40.883 1.3789,-41.359 1.8047,-1.1172 13.188,11.852 17.18,19.574 2.1992,4.25 3.4141,10.312 4.082,20.41 0.89063,13.387 1.0859,14.055 2.875,9.8242 3.4219,-8.0742 4.5,-17.727 3.0156,-26.957 -1.7852,-11.074 -5.2031,-17.906 -14.211,-28.387 -7.8828,-9.1758 -10.984,-14.48 -13.605,-23.273 -1.4492,-4.8633 -2.5078,-6.0469 -5.4141,-6.0469 z"
       id="path71"
       inkscape:connector-curvature="0"
       style="fill:#ffffff" />
    <path
       transform="scale(0.75)"
       d="m 21,389.71 v 12 c 0,27.521 22.307,49.828 49.828,49.828 h 291.42 c 27.521,0 49.828,-22.307 49.828,-49.828 v -12 c 0,27.521 -22.307,49.828 -49.828,49.828 H 70.828 C 43.307,439.538 21,417.231 21,389.71 Z"
       id="path73"
       inkscape:connector-curvature="0"
       style="opacity:0.3;stroke-width:1.33329999" />
    <path
       transform="scale(0.75)"
       d="M 70.828,60.459 C 43.307,60.459 21,82.77 21,110.291 v 10 C 21,92.77 43.307,70.459 70.828,70.459 h 291.42 c 27.521,0 49.828,22.311 49.828,49.832 v -10 c 10e-6,-27.521 -22.307,-49.832 -49.828,-49.832 z"
       id="path75"
       inkscape:connector-curvature="0"
       style="opacity:0.3;fill:#ffffff;stroke-width:1.33329999" />
  </g>
</svg>
