<?xml version="1.0" encoding="UTF-8" standalone="no"?>
<svg
   xmlns:dc="http://purl.org/dc/elements/1.1/"
   xmlns:cc="http://creativecommons.org/ns#"
   xmlns:rdf="http://www.w3.org/1999/02/22-rdf-syntax-ns#"
   xmlns:svg="http://www.w3.org/2000/svg"
   xmlns="http://www.w3.org/2000/svg"
   xmlns:xlink="http://www.w3.org/1999/xlink"
   xmlns:sodipodi="http://sodipodi.sourceforge.net/DTD/sodipodi-0.dtd"
   xmlns:inkscape="http://www.inkscape.org/namespaces/inkscape"
   width="512"
   height="512"
   version="1.1"
   viewBox="0 0 384 384"
   id="svg22"
   sodipodi:docname="disk-utility.svg"
   inkscape:version="0.92.4 5da689c313, 2019-01-14">
  <metadata
     id="metadata28">
    <rdf:RDF>
      <cc:Work
         rdf:about="">
        <dc:format>image/svg+xml</dc:format>
        <dc:type
           rdf:resource="http://purl.org/dc/dcmitype/StillImage" />
        <dc:title></dc:title>
      </cc:Work>
    </rdf:RDF>
  </metadata>
  <defs
     id="defs26">
    <linearGradient
       inkscape:collect="always"
       id="linearGradient957">
      <stop
         style="stop-color:#d2d2d2;stop-opacity:1;"
         offset="0"
         id="stop953" />
      <stop
         style="stop-color:#dcdcdc;stop-opacity:1"
         offset="1"
         id="stop955" />
    </linearGradient>
    <linearGradient
       inkscape:collect="always"
       id="linearGradient924">
      <stop
         style="stop-color:#ffffff;stop-opacity:1;"
         offset="0"
         id="stop920" />
      <stop
         style="stop-color:#ffffff;stop-opacity:0;"
         offset="1"
         id="stop922" />
    </linearGradient>
    <linearGradient
       inkscape:collect="always"
       id="linearGradient892">
      <stop
         style="stop-color:#000000;stop-opacity:1;"
         offset="0"
         id="stop888" />
      <stop
         style="stop-color:#000000;stop-opacity:0;"
         offset="1"
         id="stop890" />
    </linearGradient>
    <linearGradient
       inkscape:collect="always"
       xlink:href="#linearGradient892"
       id="linearGradient894"
       x1="195.51483"
       y1="364.47458"
       x2="194.18008"
       y2="336.81357"
       gradientUnits="userSpaceOnUse" />
    <linearGradient
       inkscape:collect="always"
       xlink:href="#linearGradient924"
       id="linearGradient926"
       x1="180.87076"
       y1="18.711864"
       x2="180.34958"
       y2="46.372883"
       gradientUnits="userSpaceOnUse" />
    <linearGradient
       inkscape:collect="always"
       xlink:href="#linearGradient957"
       id="linearGradient959"
       x1="197.80704"
       y1="369.35593"
       x2="187.82008"
       y2="14.644068"
       gradientUnits="userSpaceOnUse" />
    <linearGradient
       gradientTransform="matrix(1,0,0,0.88695652,2.7012207e-6,-350.29564)"
       inkscape:collect="always"
       xlink:href="#linearGradient924"
       id="linearGradient926-5"
       x1="180.87076"
       y1="18.711864"
       x2="180.34958"
       y2="35.170052"
       gradientUnits="userSpaceOnUse" />
  </defs>
  <sodipodi:namedview
     pagecolor="#ffffff"
     bordercolor="#666666"
     borderopacity="1"
     objecttolerance="10"
     gridtolerance="10"
     guidetolerance="10"
     inkscape:pageopacity="0"
     inkscape:pageshadow="2"
     inkscape:window-width="1366"
     inkscape:window-height="710"
     id="namedview24"
     showgrid="false"
     inkscape:zoom="1.1118061"
     inkscape:cx="342.29717"
     inkscape:cy="143.75539"
     inkscape:window-x="0"
     inkscape:window-y="25"
     inkscape:window-maximized="1"
     inkscape:current-layer="svg22"
     showguides="true"
     inkscape:guide-bbox="true" />
  <rect
     style="opacity:0.4;fill:none;fill-opacity:1;stroke:url(#linearGradient894);stroke-width:7.49999952;stroke-linecap:round;stroke-linejoin:round;stroke-miterlimit:4;stroke-dasharray:none;stroke-opacity:1;paint-order:stroke fill markers"
     id="rect837-3"
     width="280.67017"
     height="345"
     x="51.664917"
     y="27"
     rx="21.279659"
     ry="21.279661" />
  <rect
     style="opacity:1;fill:url(#linearGradient959);fill-opacity:1;stroke:none;stroke-width:7.49999809;stroke-linecap:round;stroke-linejoin:round;stroke-miterlimit:4;stroke-dasharray:none;stroke-opacity:1;paint-order:stroke fill markers"
     id="rect837"
     width="287.77576"
     height="352.5"
     x="48.112129"
     y="15.75"
     rx="21.279659"
     ry="21.279661" />
  <rect
     style="opacity:0.4;fill:none;fill-opacity:1;stroke:url(#linearGradient926);stroke-width:7.49999952;stroke-linecap:round;stroke-linejoin:round;stroke-miterlimit:4;stroke-dasharray:none;stroke-opacity:1;paint-order:stroke fill markers"
     id="rect837-3-3"
     width="280.67017"
     height="345"
     x="51.664917"
     y="19.5"
     rx="21.279659"
     ry="21.279661" />
  <circle
     style="fill:#000000;fill-opacity:0.58823529;stroke:none;stroke-width:9.52398872;stroke-miterlimit:4;stroke-dasharray:none;stroke-opacity:1"
     id="path833-2"
     cx="192"
     cy="180"
     r="112.5" />
  <circle
     style="fill:#e6e6e6;fill-opacity:1;stroke:none;stroke-width:9.52398872;stroke-miterlimit:4;stroke-dasharray:none;stroke-opacity:1"
     id="path833"
     cx="192"
     cy="174"
     r="112.5" />
  <circle
     style="fill:#000000;fill-opacity:0.19607843;stroke:none;stroke-width:1.58733141;stroke-miterlimit:4;stroke-dasharray:none;stroke-opacity:1"
     id="path833-6"
     cx="192"
     cy="172.5"
     r="18.75" />
  <rect
     style="opacity:1;fill:#000000;fill-opacity:0.58823532;stroke:none;stroke-width:2.25820446;stroke-linecap:round;stroke-linejoin:round;stroke-miterlimit:4;stroke-dasharray:none;stroke-opacity:1;paint-order:stroke fill markers"
     id="rect837-1"
     width="287.77576"
     height="31.9568"
     x="48.112122"
     y="336.29321"
     rx="13.725779"
     ry="13.725779" />
  <rect
     style="opacity:0.4;fill:none;fill-opacity:1;stroke:url(#linearGradient926-5);stroke-width:7.0633769;stroke-linecap:round;stroke-linejoin:round;stroke-miterlimit:4;stroke-dasharray:none;stroke-opacity:1;paint-order:stroke fill markers"
     id="rect837-3-3-4"
     width="280.67017"
     height="306"
     x="51.664917"
     y="-333"
     rx="0"
     ry="0"
     transform="scale(1,-1)" />
  <circle
     style="fill:#000000;fill-opacity:0.39215686;stroke:none;stroke-width:5.88742876;stroke-miterlimit:4;stroke-dasharray:none;stroke-opacity:1"
     id="path1084"
     cx="78.583656"
     cy="48.215786"
     r="7.5" />
  <circle
     style="fill:#000000;fill-opacity:0.39215686;stroke:none;stroke-width:5.88742876;stroke-miterlimit:4;stroke-dasharray:none;stroke-opacity:1"
     id="path1084-0"
     cx="306"
     cy="48.216"
     r="7.5" />
  <circle
     style="fill:#000000;fill-opacity:0.39215686;stroke:none;stroke-width:5.88742876;stroke-miterlimit:4;stroke-dasharray:none;stroke-opacity:1"
     id="path1084-8"
     cx="78.583504"
     cy="303.74136"
     r="7.5" />
  <circle
     style="fill:#000000;fill-opacity:0.39215686;stroke:none;stroke-width:5.88742876;stroke-miterlimit:4;stroke-dasharray:none;stroke-opacity:1"
     id="path1084-8-5"
     cx="306"
     cy="303.741"
     r="7.5" />
  <circle
     style="opacity:0.3;stroke-width:0.99999994"
     cx="317.91925"
     cy="303.49289"
     r="5.6089001"
     id="circle150" />
  <path
     inkscape:connector-curvature="0"
     style="opacity:0.3;stroke-width:0.97425002"
     d="m 385.60927,294.0329 c 0,49.70599 -40.294,89.99999 -89.99999,89.99999 -49.70601,0 -90,-40.294 -90,-89.99999 0,-49.706 40.29399,-90 90,-90 49.70599,0 89.99999,40.294 89.99999,90 z"
     id="path158" />
  <path
     inkscape:connector-curvature="0"
     style="fill:#8a3fab;stroke-width:0.97425002"
     d="m 385.60927,286.5329 c 0,49.70599 -40.294,89.99999 -89.99999,89.99999 -49.70601,0 -90,-40.294 -90,-89.99999 0,-49.706 40.29399,-90 90,-90 49.70599,0 89.99999,40.294 89.99999,90 z"
     id="path160" />
  <path
     inkscape:connector-curvature="0"
     style="opacity:0.3;stroke-width:0.87099999"
     d="m 288.60927,249.0329 -2.22829,11.635 c -2.74761,0.76001 -5.3613,1.9034 -7.79061,3.2818 l -10.012,-6.5535 -9.7008,9.6697 6.5174,9.9983 c -1.3772,2.4217 -2.4159,4.9609 -3.1799,7.704 l -11.61,2.2973 v 13.93599 l 11.61,2.29391 c 0.75732,2.74639 1.8028,5.4444 3.1799,7.86949 l -6.5174,9.83511 9.7008,9.8352 10.012,-6.7192 c 2.42931,1.37149 5.043,2.51839 7.79061,3.2784 l 2.22829,11.638 h 13.99001 l 2.22828,-11.638 c 2.74762,-0.76004 5.36472,-1.90001 7.79062,-3.2784 l 10.016,6.7192 9.7009,-9.8352 -6.5207,-9.83511 c 1.3772,-2.42169 2.4193,-5.12319 3.1832,-7.86949 l 11.607,-2.29391 V 287.0655 l -11.607,-2.2973 c -0.76065,-2.743 -1.8061,-5.2822 -3.1832,-7.704 l 6.5207,-9.9983 -9.7009,-9.6697 -10.016,6.5535 c -2.426,-1.3715 -5.043,-2.5219 -7.79061,-3.2818 l -2.22829,-11.635 z m 6.99989,29.174 c 8.43101,0 15.26301,7.044 15.26301,15.736 0,8.6952 -6.8323,15.736 -15.26301,15.736 -8.434,0 -15.267,-7.0405 -15.267,-15.736 0,-8.6922 6.83231,-15.736 15.267,-15.736 z"
     id="path162" />
  <path
     inkscape:connector-curvature="0"
     style="fill:#ffffff;stroke-width:0.87099999"
     d="m 288.60927,241.5329 -2.22829,11.635 c -2.74761,0.76001 -5.3613,1.9034 -7.79061,3.2818 l -10.012,-6.5535 -9.7008,9.6697 6.5174,9.9983 c -1.3772,2.4217 -2.4159,4.9609 -3.1799,7.704 l -11.61,2.2973 v 13.936 l 11.61,2.2939 c 0.7573,2.74639 1.8028,5.4444 3.1799,7.86949 l -6.5174,9.83511 9.7008,9.8352 10.012,-6.7192 c 2.42931,1.37149 5.043,2.51839 7.79061,3.2784 l 2.22829,11.638 h 13.99001 l 2.22828,-11.638 c 2.74762,-0.76002 5.36462,-1.90001 7.79062,-3.2784 l 10.016,6.7192 9.7009,-9.8352 -6.5207,-9.83511 c 1.3772,-2.42169 2.41919,-5.12319 3.1832,-7.86949 l 11.607,-2.2939 v -13.936 l -11.607,-2.2973 c -0.76065,-2.743 -1.8061,-5.2822 -3.1832,-7.704 l 6.5207,-9.9983 -9.7009,-9.6697 -10.016,6.5535 c -2.426,-1.3715 -5.043,-2.5219 -7.79061,-3.2818 l -2.22829,-11.635 z m 6.99989,29.174 c 8.43101,0 15.26301,7.044 15.26301,15.736 0,8.6952 -6.8323,15.736 -15.26301,15.736 -8.434,0 -15.267,-7.0405 -15.267,-15.736 0,-8.6922 6.83231,-15.736 15.267,-15.736 z"
     id="path164" />
</svg>
