<?xml version="1.0" encoding="UTF-8" standalone="no"?>
<svg
   xmlns:dc="http://purl.org/dc/elements/1.1/"
   xmlns:cc="http://creativecommons.org/ns#"
   xmlns:rdf="http://www.w3.org/1999/02/22-rdf-syntax-ns#"
   xmlns:svg="http://www.w3.org/2000/svg"
   xmlns="http://www.w3.org/2000/svg"
   xmlns:xlink="http://www.w3.org/1999/xlink"
   xmlns:sodipodi="http://sodipodi.sourceforge.net/DTD/sodipodi-0.dtd"
   xmlns:inkscape="http://www.inkscape.org/namespaces/inkscape"
   width="512"
   height="512"
   version="1.1"
   viewBox="0 0 384 384"
   id="svg22"
   sodipodi:docname="drive-harddisk-ieee1394.svg"
   inkscape:version="0.92.4 5da689c313, 2019-01-14">
  <metadata
     id="metadata28">
    <rdf:RDF>
      <cc:Work
         rdf:about="">
        <dc:format>image/svg+xml</dc:format>
        <dc:type
           rdf:resource="http://purl.org/dc/dcmitype/StillImage" />
        <dc:title></dc:title>
      </cc:Work>
    </rdf:RDF>
  </metadata>
  <defs
     id="defs26">
    <linearGradient
       inkscape:collect="always"
       id="linearGradient957">
      <stop
         style="stop-color:#d2d2d2;stop-opacity:1;"
         offset="0"
         id="stop953" />
      <stop
         style="stop-color:#dcdcdc;stop-opacity:1"
         offset="1"
         id="stop955" />
    </linearGradient>
    <linearGradient
       inkscape:collect="always"
       id="linearGradient924">
      <stop
         style="stop-color:#ffffff;stop-opacity:1;"
         offset="0"
         id="stop920" />
      <stop
         style="stop-color:#ffffff;stop-opacity:0;"
         offset="1"
         id="stop922" />
    </linearGradient>
    <linearGradient
       inkscape:collect="always"
       id="linearGradient892">
      <stop
         style="stop-color:#000000;stop-opacity:1;"
         offset="0"
         id="stop888" />
      <stop
         style="stop-color:#000000;stop-opacity:0;"
         offset="1"
         id="stop890" />
    </linearGradient>
    <linearGradient
       inkscape:collect="always"
       xlink:href="#linearGradient892"
       id="linearGradient894"
       x1="195.51483"
       y1="364.47458"
       x2="194.18008"
       y2="336.81357"
       gradientUnits="userSpaceOnUse" />
    <linearGradient
       inkscape:collect="always"
       xlink:href="#linearGradient924"
       id="linearGradient926"
       x1="180.87076"
       y1="18.711864"
       x2="180.34958"
       y2="46.372883"
       gradientUnits="userSpaceOnUse" />
    <linearGradient
       inkscape:collect="always"
       xlink:href="#linearGradient957"
       id="linearGradient959"
       x1="197.80704"
       y1="369.35593"
       x2="187.82008"
       y2="14.644068"
       gradientUnits="userSpaceOnUse" />
    <linearGradient
       gradientTransform="matrix(1,0,0,0.88695652,2.7012207e-6,-350.29564)"
       inkscape:collect="always"
       xlink:href="#linearGradient924"
       id="linearGradient926-5"
       x1="180.87076"
       y1="18.711864"
       x2="180.34958"
       y2="35.170052"
       gradientUnits="userSpaceOnUse" />
  </defs>
  <sodipodi:namedview
     pagecolor="#ffffff"
     bordercolor="#666666"
     borderopacity="1"
     objecttolerance="10"
     gridtolerance="10"
     guidetolerance="10"
     inkscape:pageopacity="0"
     inkscape:pageshadow="2"
     inkscape:window-width="1366"
     inkscape:window-height="710"
     id="namedview24"
     showgrid="false"
     inkscape:zoom="0.55590307"
     inkscape:cx="327.8978"
     inkscape:cy="102.57653"
     inkscape:window-x="0"
     inkscape:window-y="25"
     inkscape:window-maximized="1"
     inkscape:current-layer="svg22"
     showguides="true"
     inkscape:guide-bbox="true" />
  <g
     id="g1422">
    <rect
       ry="21.279661"
       rx="21.279659"
       y="27"
       x="51.664917"
       height="345"
       width="280.67017"
       id="rect837-3"
       style="opacity:0.4;fill:none;fill-opacity:1;stroke:url(#linearGradient894);stroke-width:7.49999952;stroke-linecap:round;stroke-linejoin:round;stroke-miterlimit:4;stroke-dasharray:none;stroke-opacity:1;paint-order:stroke fill markers" />
    <rect
       ry="21.279661"
       rx="21.279659"
       y="15.75"
       x="48.112129"
       height="352.5"
       width="287.77576"
       id="rect837"
       style="opacity:1;fill:url(#linearGradient959);fill-opacity:1;stroke:none;stroke-width:7.49999809;stroke-linecap:round;stroke-linejoin:round;stroke-miterlimit:4;stroke-dasharray:none;stroke-opacity:1;paint-order:stroke fill markers" />
    <rect
       ry="21.279661"
       rx="21.279659"
       y="19.5"
       x="51.664917"
       height="345"
       width="280.67017"
       id="rect837-3-3"
       style="opacity:0.4;fill:none;fill-opacity:1;stroke:url(#linearGradient926);stroke-width:7.49999952;stroke-linecap:round;stroke-linejoin:round;stroke-miterlimit:4;stroke-dasharray:none;stroke-opacity:1;paint-order:stroke fill markers" />
    <circle
       r="112.5"
       cy="180"
       cx="192"
       id="path833-2"
       style="fill:#000000;fill-opacity:0.58823529;stroke:none;stroke-width:9.52398872;stroke-miterlimit:4;stroke-dasharray:none;stroke-opacity:1" />
    <circle
       r="112.5"
       cy="174"
       cx="192"
       id="path833"
       style="fill:#e6e6e6;fill-opacity:1;stroke:none;stroke-width:9.52398872;stroke-miterlimit:4;stroke-dasharray:none;stroke-opacity:1" />
    <circle
       r="18.75"
       cy="172.5"
       cx="192"
       id="path833-6"
       style="fill:#000000;fill-opacity:0.19607843;stroke:none;stroke-width:1.58733141;stroke-miterlimit:4;stroke-dasharray:none;stroke-opacity:1" />
    <rect
       ry="13.725779"
       rx="13.725779"
       y="336.29321"
       x="48.112122"
       height="31.9568"
       width="287.77576"
       id="rect837-1"
       style="opacity:1;fill:#000000;fill-opacity:0.58823532;stroke:none;stroke-width:2.25820446;stroke-linecap:round;stroke-linejoin:round;stroke-miterlimit:4;stroke-dasharray:none;stroke-opacity:1;paint-order:stroke fill markers" />
    <rect
       transform="scale(1,-1)"
       ry="0"
       rx="0"
       y="-333"
       x="51.664917"
       height="306"
       width="280.67017"
       id="rect837-3-3-4"
       style="opacity:0.4;fill:none;fill-opacity:1;stroke:url(#linearGradient926-5);stroke-width:7.0633769;stroke-linecap:round;stroke-linejoin:round;stroke-miterlimit:4;stroke-dasharray:none;stroke-opacity:1;paint-order:stroke fill markers" />
    <circle
       r="7.5"
       cy="48.215786"
       cx="78.583656"
       id="path1084"
       style="fill:#000000;fill-opacity:0.39215686;stroke:none;stroke-width:5.88742876;stroke-miterlimit:4;stroke-dasharray:none;stroke-opacity:1" />
    <circle
       r="7.5"
       cy="48.216"
       cx="306"
       id="path1084-0"
       style="fill:#000000;fill-opacity:0.39215686;stroke:none;stroke-width:5.88742876;stroke-miterlimit:4;stroke-dasharray:none;stroke-opacity:1" />
    <circle
       r="7.5"
       cy="303.74136"
       cx="78.583504"
       id="path1084-8"
       style="fill:#000000;fill-opacity:0.39215686;stroke:none;stroke-width:5.88742876;stroke-miterlimit:4;stroke-dasharray:none;stroke-opacity:1" />
    <circle
       r="7.5"
       cy="303.741"
       cx="306"
       id="path1084-8-5"
       style="fill:#000000;fill-opacity:0.39215686;stroke:none;stroke-width:5.88742876;stroke-miterlimit:4;stroke-dasharray:none;stroke-opacity:1" />
  </g>
  <path
     inkscape:connector-curvature="0"
     d="m 171.80741,240.97432 v -7.5391 h 40.46099 v 15.07399 h -40.46099 z m 0,-22.414 v -7.3359 h 40.46099 v 14.676 h -40.46099 z m 11.934,-16.086 c -10.129,-2.6523 -17.828,-10.242 -20.719,-20.426 -1.2812,-4.5156 -1.2812,-12.504 0,-17.02 2.9141,-10.27 10.668,-17.871 20.848,-20.445 3.9961,-1.0117 11.828,-1.0938 15.68,-0.16797 8.6289,2.0781 16.52,8.7539 19.926,16.859 2.9922,7.1211 3.08199,16.98 0.21876,24.023 -3.4648,8.5312 -11.10201,15.105 -20.145,17.348 -3.7617,0.9297 -11.938,0.84375 -15.809,-0.17187 z m 12.051,-11.297 c 6.93749,-1.8047 12.23,-7.4102 13.93,-14.746 0.78514,-3.3828 0.33984,-6.2383 -1.6133,-10.352 -3.4258,-7.2188 -11.551,-11.758 -18.691,-10.441 -10.637,1.9609 -17.816,12.633 -14.996,22.293 1.9062,6.5312 6.9766,11.387 13.848,13.262 2.6484,0.72265 4.7109,0.71875 7.5234,-0.0156 z m -51.262,-39.559 c -2.6875,-2.6953 -4.4531,-4.7812 -4.4531,-5.2578 0,-1.0898 26.09,-27.164 27.18,-27.164 1.2266,0 9.707,8.6719 9.707,9.9258 0,1.4453 -25.535,26.965 -26.98,26.965 -0.74219,0 -2.1367,-1.1445 -5.4531,-4.4688 z m 74.38299,-8.7656 c -8.70309,-8.5703 -11.406,-11.457 -11.406,-12.187 0,-0.73438 3.3945,-4.3555 14.38301,-15.34 11.656,-11.652 14.578,-14.375 15.43,-14.375 0.85157,0 3.1602,2.1641 12.293,11.531 7.0039,7.1797 11.293,11.871 11.367,12.438 0.17188,1.293 -27.965,28.938 -29.59,29.074 -0.91797,0.0781 -2.7109,-1.5195 -12.47701,-11.141 z m -91.83599,-8.293 c -3.332,-3.3438 -4.0586,-4.2852 -4.0586,-5.2578 0,-1.0273 1.7305,-2.9141 12.992,-14.172 10.16,-10.156 13.211,-12.988 13.992,-12.988 1.4102,0 9.5078,8.1133 9.5078,9.5273 0,0.76563 -2.8906,3.8789 -12.992,13.977 -11.305,11.301 -13.148,12.988 -14.188,12.988 -0.98828,0 -1.8984,-0.70703 -5.2539,-4.0742 z"
     id="path50"
     style="fill:#646464;fill-opacity:1;stroke-width:0.99999994" />
</svg>
