<?xml version="1.0" encoding="UTF-8" standalone="no"?>
<svg
   xmlns:dc="http://purl.org/dc/elements/1.1/"
   xmlns:cc="http://creativecommons.org/ns#"
   xmlns:rdf="http://www.w3.org/1999/02/22-rdf-syntax-ns#"
   xmlns:svg="http://www.w3.org/2000/svg"
   xmlns="http://www.w3.org/2000/svg"
   xmlns:sodipodi="http://sodipodi.sourceforge.net/DTD/sodipodi-0.dtd"
   xmlns:inkscape="http://www.inkscape.org/namespaces/inkscape"
   width="512"
   height="512"
   version="1.1"
   viewBox="0 0 384 384"
   id="svg16"
   sodipodi:docname="gnome-screenruler.svg"
   inkscape:version="0.92.4 5da689c313, 2019-01-14">
  <metadata
     id="metadata22">
    <rdf:RDF>
      <cc:Work
         rdf:about="">
        <dc:format>image/svg+xml</dc:format>
        <dc:type
           rdf:resource="http://purl.org/dc/dcmitype/StillImage" />
      </cc:Work>
    </rdf:RDF>
  </metadata>
  <defs
     id="defs20" />
  <sodipodi:namedview
     pagecolor="#ffffff"
     bordercolor="#666666"
     borderopacity="1"
     objecttolerance="10"
     gridtolerance="10"
     guidetolerance="10"
     inkscape:pageopacity="0"
     inkscape:pageshadow="2"
     inkscape:window-width="1920"
     inkscape:window-height="1002"
     id="namedview18"
     showgrid="false"
     inkscape:zoom="0.4609375"
     inkscape:cx="46.644068"
     inkscape:cy="235.38983"
     inkscape:window-x="0"
     inkscape:window-y="0"
     inkscape:window-maximized="1"
     inkscape:current-layer="svg16" />
  <g
     transform="matrix(1.0491071,0,0,1.0491071,-9.4285632,-4.1630667)"
     id="g14">
    <g
       id="g4">
      <path
         style="fill:#f19400;fill-opacity:1"
         d="M 360,307.12109 V 70.878906 C 360,61.554688 352.47656,54 343.19922,54 H 40.800781 C 31.523438,54 24,61.554688 24,70.878906 V 307.12109 C 24,316.44531 31.523438,324 40.800781,324 H 343.19922 C 352.47656,324 360,316.44531 360,307.12109 Z m 0,0"
         id="path2" />
    </g>
    <path
       style="fill:rgb(100.000%,100.000%,100.000%);stroke:rgb(100.000%,100.000%,100.000%);stroke-width:7.5"
       d="m 338.3829,53.722311 -9.06103,0.02503 0.0449,60.546939 9.06852,-0.0398 z m -36.25911,0.158327 -9.06106,0.02503 0.10123,121.077232 9.07225,-0.0342 z m -36.26659,0.150027 -9.06478,0.05007 0.0598,60.530265 9.06478,-0.0398 z m -36.25913,0.158327 -9.06475,0.05007 0.0524,60.521958 9.06855,-0.005 z m -36.26284,0.183365 -9.06851,0.01653 0.10866,121.077223 9.06476,-0.0397 z m -36.26659,0.150026 -9.05729,0.02503 0.045,60.546947 9.07601,-0.0398 z m -36.25535,0.158328 -9.06853,0.04153 0.0524,60.530269 9.06851,-0.0512 z m -36.266603,0.150025 -9.068511,0.04152 0.108633,121.085604 9.064753,-0.0512 z m -36.262847,0.175003 -9.061035,0.02503 0.04494,60.546941 9.064781,-0.0398 z"
       id="path6" />
    <rect
       style="fill:none;stroke:rgb(100.000%,100.000%,100.000%);stroke-width:15"
       width="49.432"
       height="84.061"
       x="56.74"
       y="212.69"
       id="rect8" />
    <path
       d="m 32,399.49414 v 10 C 32,421.92645 42.030604,432 54.400391,432 H 457.59961 C 469.9694,432 480.00001,421.92645 480,409.49414 v -10 C 480,411.92643 469.96934,422 457.59961,422 H 54.400391 C 42.030604,422 32,411.92643 32,399.49414 Z"
       transform="scale(0.75)"
       id="path10" />
    <path
       style="opacity:0.3;fill:rgb(100.000%,100.000%,100.000%)"
       d="M 54.400391,72 C 42.030604,72 32,82.073569 32,94.505859 V 104.50586 C 32,92.07357 42.030591,82 54.400391,82 H 457.59961 C 469.96942,82 480,92.07357 480,104.50586 V 94.505859 C 480,82.073569 469.96941,72 457.59961,72 Z"
       transform="scale(0.75)"
       id="path12" />
  </g>
</svg>
