<?xml version="1.0" encoding="UTF-8" standalone="no"?>
<svg
   xmlns:dc="http://purl.org/dc/elements/1.1/"
   xmlns:cc="http://creativecommons.org/ns#"
   xmlns:rdf="http://www.w3.org/1999/02/22-rdf-syntax-ns#"
   xmlns:svg="http://www.w3.org/2000/svg"
   xmlns="http://www.w3.org/2000/svg"
   xmlns:sodipodi="http://sodipodi.sourceforge.net/DTD/sodipodi-0.dtd"
   xmlns:inkscape="http://www.inkscape.org/namespaces/inkscape"
   width="512"
   height="512"
   version="1.1"
   viewBox="0 0 384 384"
   id="svg12"
   sodipodi:docname="preferences-system-network-sharing.svg"
   inkscape:version="0.92.3 (2405546, 2018-03-11)">
  <metadata
     id="metadata18">
    <rdf:RDF>
      <cc:Work
         rdf:about="">
        <dc:format>image/svg+xml</dc:format>
        <dc:type
           rdf:resource="http://purl.org/dc/dcmitype/StillImage" />
      </cc:Work>
    </rdf:RDF>
  </metadata>
  <defs
     id="defs16" />
  <sodipodi:namedview
     pagecolor="#ffffff"
     bordercolor="#666666"
     borderopacity="1"
     objecttolerance="10"
     gridtolerance="10"
     guidetolerance="10"
     inkscape:pageopacity="0"
     inkscape:pageshadow="2"
     inkscape:window-width="1366"
     inkscape:window-height="707"
     id="namedview14"
     showgrid="false"
     inkscape:zoom="0.4609375"
     inkscape:cx="46.644068"
     inkscape:cy="256"
     inkscape:window-x="0"
     inkscape:window-y="33"
     inkscape:window-maximized="1"
     inkscape:current-layer="svg12" />
  <path
     d="m192 23.242c93.199 0 168.75 75.551 168.75 168.75 0 93.199-75.551 168.75-168.75 168.75-93.195 0-168.75-75.551-168.75-168.75 0-93.195 75.551-168.75 168.75-168.75z"
     fill="#b8174a"
     id="path2"
     style="fill:#5809c6;fill-opacity:1" />
  <path
     d="m147.65 131.06c-11.684 0-21.09 9.4062-21.09 21.094 0 10.238 7.2188 18.723 16.871 20.664v68.355c-9.6523 1.9414-16.871 10.422-16.871 20.664 0 11.688 9.4062 21.094 21.09 21.094 11.688 0 21.094-9.4062 21.094-21.094 0-4.8516-1.6797-9.2656-4.4141-12.82l81.309-79.297c3.3438 2.2226 7.3633 3.5234 11.699 3.5234 11.688 0 21.094-9.4062 21.094-21.09 0-11.687-9.4062-21.094-21.094-21.094-11.687 0-21.094 9.4062-21.094 21.094 0 4.2812 1.2852 8.2461 3.461 11.566l-81.785 79.777c-1.875-1.0508-3.875-1.8867-6.0508-2.3242v-68.355c9.6562-1.9414 16.875-10.422 16.875-20.664 0-11.688-9.4062-21.094-21.094-21.094z"
     opacity=".3"
     id="path4" />
  <path
     d="m147.65 123.56c-11.684 0-21.09 9.4062-21.09 21.094 0 10.238 7.2188 18.723 16.871 20.664v68.355c-9.6523 1.9414-16.871 10.422-16.871 20.664 0 11.688 9.4062 21.094 21.09 21.094 11.688 0 21.094-9.4062 21.094-21.094 0-4.8516-1.6797-9.2656-4.4141-12.82l81.309-79.297c3.3438 2.2226 7.3633 3.5234 11.699 3.5234 11.688 0 21.094-9.4062 21.094-21.09 0-11.687-9.4062-21.094-21.094-21.094s-21.094 9.4062-21.094 21.094c0 4.2812 1.2852 8.2461 3.4609 11.566l-81.785 79.777c-1.875-1.0508-3.875-1.8867-6.0508-2.3242v-68.355c9.6562-1.9414 16.875-10.422 16.875-20.664 0-11.688-9.4062-21.094-21.094-21.094z"
     fill="#fff"
     id="path6" />
  <path
     d="m23.299 188.24c-0.02721 1.2474-0.04834 2.4961-0.04834 3.75 0 93.199 75.55 168.75 168.75 168.75 93.199 0 168.75-75.551 168.75-168.75 0-1.2539-0.0197-2.5026-0.0469-3.75-1.9953 91.466-76.758 165-168.7 165-91.941 0-166.7-73.534-168.7-165z"
     opacity=".3"
     id="path8" />
  <path
     d="m192 23.243c-93.195 0-168.75 75.55-168.75 168.75 0 1.2539 0.02113 2.5026 0.04834 3.75 1.9953-91.463 76.756-165 168.7-165 91.945 0 166.71 73.533 168.7 165 0.0272-1.2474 0.0469-2.4961 0.0469-3.75 0-93.195-75.551-168.75-168.75-168.75z"
     fill="#fff"
     opacity=".3"
     id="path10" />
</svg>
